<?xml version="1.0" encoding="UTF-8"?>
<svg version="1.1" viewBox="0 0 1600 448" width="1280" height="1280" xmlns="http://www.w3.org/2000/svg">
<path transform="translate(0)" d="m0 0h1600v448h-1600v-448z" fill="#FBFEFE"/>
<path transform="translate(695 159)" d="m0 0h3.02c2.09 0.01 4.18 0.02 6.27 0.05 3.2 0.04 6.4 0.04 9.59 0.04 2.04 0.01 4.08 0.02 6.12 0.03 1.43 0.01 1.43 0.01 2.89 0.01 8.59 0.12 8.59 0.12 12.3 2.33 2.32 3.47 2.51 4.92 2 9-2.96 2.9-5.15 3.38-9.22 3.43-1.04 0.02-2.08 0.04-3.16 0.06-1.67 0.01-1.67 0.01-3.38 0.02-1.72 0.03-1.72 0.03-3.48 0.06-3.67 0.05-7.34 0.09-11 0.12-2.48 0.03-4.97 0.07-7.46 0.1-6.09 0.09-12.2 0.16-18.3 0.21-2.41 6.6-2.27 12.9-2.24 19.9v3.9c-0.01 3.51 0 7.02 0.01 10.5 0.01 3.68 0.01 7.36 0.01 11 0 6.16 0 12.3 0.02 18.5 0.01 7.14 0.02 14.3 0.02 21.4 0 6.86 0 13.7 0.01 20.6 0.01 2.92 0.01 5.85 0.01 8.77 0 4.08 0.01 8.15 0.02 12.2v3.7c0 1.65 0 1.65 0.01 3.34 0 0.96 0 1.92 0.01 2.92-0.12 2.14-0.12 2.14 1.12 3.16 1.49 0.16 2.98 0.25 4.48 0.32 0.9 0.04 1.8 0.08 2.72 0.12 0.95 0.04 1.89 0.08 2.87 0.12 0.95 0.05 1.9 0.09 2.87 0.13 2.36 0.11 4.71 0.21 7.06 0.31l2-10h2c0.27-0.97 0.54-1.94 0.82-2.94 0.39-1.01 0.78-2.02 1.18-3.06 0.99-0.33 1.98-0.66 3-1l1-2c1-2 1-2 4-3 0.27-0.6 0.54-1.2 0.82-1.81 2.65-4.89 7.43-6.43 12.5-7.94 4.81-1.18 9.76-2.38 14.7-1.25 2.39 2.53 2.86 4.26 3.5 7.63-0.5 2.37-0.5 2.37-2.31 4.06-2.97 1.22-5.34 1.71-8.5 2.19-6.76 1.1-11.2 3.68-16.1 8.5-1.98 3.19-2.77 5.97-3.63 9.62 5.94 1.31 11.8 1.11 17.9 1.06 1.6 0 1.6 0 3.24-0.01 2.63-0.01 5.26-0.03 7.88-0.05 0.04-0.58 0.07-1.15 0.11-1.75 0.71-8.7 4.54-16 10.6-22.4 2.07-1.68 3.96-2.7 6.31-3.88 0.5-1.48 0.5-1.48 1-3 2.45-1.57 2.45-1.57 5.57-3.12 1.01-0.52 2.02-1.04 3.06-1.57 2.78-1.08 4.7-1.57 7.59-1.89 1.25-0.14 2.5-0.28 3.78-0.42-0.01-0.66-0.02-1.33-0.03-2.02-0.11-6.92-0.19-13.8-0.24-20.8-0.03-2.58-0.06-5.17-0.1-7.75-0.06-3.72-0.09-7.43-0.11-11.2-0.04-1.73-0.04-1.73-0.08-3.5-0.01-8.94-0.01-8.94 2.92-12 2.89-1.91 4.26-2.23 7.64-1.75 2.69 4.61 3.46 8.4 3.48 13.6 0.02 1.09 0.02 1.09 0.05 2.2 0.05 2.32 0.07 4.64 0.1 6.96 0.05 3.03 0.11 6.06 0.16 9.09 0.02 1.11 0.02 1.11 0.04 2.25 0.16 7.97 0.64 15.9 1.17 23.8 0.59 0.17 1.18 0.34 1.79 0.51 8.56 2.52 16.3 6.71 22.2 13.5 0.73 0.78 1.45 1.57 2.19 2.38 2.21 3.2 2.93 5.85 3.81 9.62h2c0.21 0.69 0.41 1.38 0.63 2.08 0.26 0.9 0.53 1.81 0.81 2.73 0.27 0.9 0.54 1.79 0.81 2.71 0.56 1.84 1.15 3.66 1.75 5.48 9.24-0.33 18.5-0.66 28-1-0.99-2.47-0.99-2.47-2-5v-3h-2v-2h-2c-1.68-1.64-3.35-3.31-5-5-4.14-3.72-8.67-4.14-14-5.16-2.98-0.83-4.24-1.33-6-3.84 0.14-2.77 0.56-4.41 2.25-6.63 3.61-2.82 8.42-1.86 12.8-1.37 7.75 1.78 14.4 5.35 20 11v2h2c1.32 2.58 2.63 5.17 3.94 7.75 0.38 0.73 0.75 1.46 1.13 2.21 0.36 0.71 0.72 1.42 1.09 2.15 0.33 0.65 0.66 1.3 1 1.97 0.84 1.92 0.84 1.92 1.84 5.92h18v-139c-0.99-0.33-1.98-0.66-3-1v-2c-1.3 0.01-2.61 0.02-3.96 0.03-4.85 0.04-9.7 0.06-14.6 0.08-2.1 0.01-4.2 0.02-6.3 0.04-3.02 0.03-6.04 0.04-9.06 0.05-1.41 0.01-1.41 0.01-2.84 0.03-8.39 0-8.39 0-12.3-2.23-1.56-2.25-1.56-2.25-2-5 2.95-5.47 2.95-5.47 6-7 1.41-0.11 2.81-0.16 4.22-0.18 0.87-0.01 1.74-0.02 2.64-0.03 1.42-0.02 1.42-0.02 2.87-0.03 0.97-0.01 1.95-0.01 2.95-0.02 2.07-0.02 4.14-0.03 6.21-0.03 3.14-0.02 6.28-0.07 9.42-0.11 2.02-0.01 4.03-0.02 6.04-0.02 0.93-0.02 1.87-0.04 2.83-0.06 7.16 0.03 13.6 1.46 19 6.45 0.65 0.97 0.65 0.97 1.31 1.97 0.45 0.65 0.91 1.3 1.37 1.96 2.47 4.35 3.45 7.89 3.47 12.9 0.01 1.15 0.02 2.31 0.03 3.51v3.82c0.01 1.35 0.01 2.7 0.02 4.05 0.02 2.89 0.03 5.79 0.04 8.69 0.01 4.58 0.04 9.16 0.06 13.7 0.05 7.24 0.08 14.5 0.11 21.7 0.05 13 0.11 26 0.18 38.9 0.03 4.56 0.05 9.12 0.06 13.7 0.01 2.83 0.03 5.66 0.04 8.48 0.01 1.95 0.01 3.89 0.02 5.84 0.01 1.14 0.01 2.29 0.02 3.47 0 1.01 0.01 2.01 0.01 3.04-0.12 2.22-0.12 2.22 1.13 3.25 3.37 0.29 6.73 0.45 10.1 0.62 0.96 0.13 1.92 0.25 2.9 0.38 1.48 2.95 1.15 5.93 1.14 9.16v2.14c0 1.49 0 2.98-0.01 4.47 0 2.29 0 4.58 0.01 6.87v4.33 2.09c-0.02 4.83-0.02 4.83-1.14 5.94-1.45 0.1-2.92 0.13-4.38 0.13-1.42 0-1.42 0-2.88 0.01-1.06 0-2.12 0-3.21-0.01-1.67 0.01-1.67 0.01-3.37 0.01-3.77 0.01-7.53 0.01-11.3 0.01-2.68 0-5.37 0-8.06 0.01-6.56 0-13.1 0.01-19.7 0.01h-16c-15.1 0.01-30.2 0.02-45.3 0.02h-2.47-2.47c-13.2 0-26.4 0.01-39.7 0.02-13.6 0.01-27.1 0.02-40.7 0.02-7.62 0-15.2 0-22.9 0.01-6.48 0.01-13 0.01-19.4 0.01-3.31-0.01-6.63 0-9.94 0-3.58 0.01-7.16 0.01-10.8 0-1.05 0-2.11 0.01-3.2 0.01-0.95 0-1.91-0.01-2.89-0.01h-2.51c-2-0.25-2-0.25-4-2.25-0.31-2.45-0.51-4.79-0.62-7.25-0.04-0.71-0.07-1.42-0.11-2.15-0.1-2.2-0.19-4.4-0.27-6.6-0.02-0.68-0.05-1.37-0.08-2.07-0.08-1.92-0.12-3.83-0.17-5.74-0.02-1.12-0.05-2.24-0.07-3.4 0.32-2.79 0.32-2.79 1.36-4.45 3.02-2.06 6.14-1.65 9.65-1.53 0.7 0.02 1.41 0.03 2.13 0.04 1.73 0.04 3.46 0.09 5.18 0.15 0-0.71 0-1.42-0.01-2.15-0.09-17.3-0.15-34.5-0.19-51.8-0.02-8.36-0.05-16.7-0.1-25.1-0.04-7.28-0.06-14.6-0.07-21.8-0.01-3.85-0.02-7.71-0.05-11.6-0.03-3.63-0.03-7.26-0.03-10.9 0-1.96-0.02-3.92-0.04-5.88 0.04-8.59 0.99-14.2 7.18-20.6 7.24-5.37 14.2-6.85 23.1-6.71z" fill="#42AA63"/>
<path transform="translate(794,78)" d="m0 0c0.5 1.48 0.5 1.48 1 3 0.68 0.5 1.36 0.99 2.06 1.5 0.64 0.5 1.28 0.99 1.94 1.5v3c0.59 0.26 1.19 0.52 1.8 0.78 2.39 1.33 3.65 2.62 5.39 4.72 3.58 4.25 7.31 8.33 11.1 12.4 1.72 2.1 1.72 2.1 1.72 4.1h2c1.67 3.33 3.33 6.67 5 10 0.36 0.64 0.73 1.29 1.1 1.95 2.08 4.73 2.04 9.88 2.11 15 0.01 0.67 0.02 1.33 0.03 2.02 0.03 2.17 0.05 4.35 0.08 6.52 0.02 1.52 0.04 3.03 0.06 4.55 0.05 3.97 0.1 7.95 0.15 11.9 0.05 4.07 0.11 8.13 0.16 12.2 0.11 7.96 0.21 15.9 0.31 23.9 1.49 0.5 1.49 0.5 3 1 1.06 1.67 1.06 1.67 2 3.75 1.07 2.29 2.12 4.46 3.44 6.63 0.51 0.86 1.03 1.73 1.56 2.62 0.43 0.58 0.86 1.16 1.3 1.75 5.46 8.58 5 20.4 3.7 30.2-0.82 2.26-0.82 2.26-2 4-6.86 1.55-14 1.1-21 1 0.01 0.63 0.02 1.26 0.03 1.91 0.04 2.88 0.07 5.77 0.09 8.65 0.02 0.99 0.04 1.98 0.06 3 0.03 5.54-0.15 10.3-2.18 15.4-2.06 1.12-2.06 1.12-4 2-0.81 2.56-0.81 2.56-1 5-2.84-1.12-5.64-2.28-8.44-3.5-3.5-1.53-3.5-1.53-6.94-2.62-2.62-0.88-2.62-0.88-3.62-1.88-0.24-2.47-0.41-4.91-0.54-7.39-0.04-0.75-0.08-1.51-0.12-2.29-0.29-5.57-0.47-11.1-0.59-16.7-0.01-0.78-0.03-1.55-0.05-2.35-0.06-3.17-0.13-6.34-0.18-9.51-0.04-2.36-0.09-4.72-0.14-7.08-0.01-0.72-0.02-1.43-0.03-2.16-0.09-3.65-0.35-6.4-2.35-9.51-3.43 0.26-3.43 0.26-7 1-2.21 3.32-2.26 4.42-2.32 8.3-0.02 1.08-0.04 2.16-0.06 3.27-0.02 1.75-0.02 1.75-0.03 3.54-0.02 1.19-0.04 2.38-0.06 3.61-0.06 3.83-0.11 7.65-0.15 11.5-0.04 2.59-0.08 5.17-0.12 7.76-0.1 6.35-0.18 12.7-0.26 19-6.76 1.79-10.7 2.52-17-1l-2 2c-6.46-0.46-6.46-0.46-9-3-0.32-2.61-0.32-2.61-0.41-5.88-0.04-1.17-0.08-2.34-0.12-3.54-0.03-1.22-0.06-2.44-0.09-3.7-0.04-1.24-0.08-2.47-0.12-3.74-0.1-3.04-0.18-6.09-0.26-9.14-1.26-0.12-2.53-0.24-3.83-0.37-1.66-0.17-3.32-0.34-4.98-0.51-0.84-0.07-1.67-0.15-2.53-0.23-0.8-0.09-1.6-0.17-2.43-0.26-0.74-0.07-1.48-0.14-2.24-0.22-1.99-0.41-1.99-0.41-4.99-2.41-1.54-3.71-1.15-7.86-1.12-11.8-0.01-0.69-0.01-1.38-0.02-2.08 0.02-6.25 0.3-12.4 3.14-18.1l2-1c1.01-1.66 2.01-3.33 3-5 0.7-0.87 1.4-1.73 2.12-2.62 2.05-2.32 2.05-2.32 2.88-5.38 0.76-0.68 0.76-0.68 1.54-1.37 2.02-2.25 1.85-3.73 1.88-6.73 0.01-1.05 0.03-2.09 0.05-3.16 0-1.13 0-2.27 0.01-3.43 0.01-1.18 0.03-2.35 0.04-3.56 0.05-3.77 0.08-7.54 0.1-11.3 0.05-4.92 0.11-9.84 0.17-14.8 0.01-1.18 0.02-2.37 0.04-3.59 0.12-9.38 0.51-18.7 1.17-28.1 1.49-0.5 1.49-0.5 3-1 0.08-0.68 0.16-1.36 0.25-2.06 2.5-9.8 10.7-18.1 17.8-24.9 1.58-1.86 3.13-3.74 4.67-5.64 0.44-0.45 0.88-0.9 1.33-1.36h2c0.1-0.59 0.2-1.19 0.31-1.8 2.31-7.35 8.86-8.92 15.7-8.2z" fill="#FBFEFE"/>
<path transform="translate(794,78)" d="m0 0c0.5 1.48 0.5 1.48 1 3 0.68 0.5 1.36 0.99 2.06 1.5 0.64 0.5 1.28 0.99 1.94 1.5v3c0.59 0.26 1.19 0.52 1.8 0.78 2.39 1.33 3.65 2.62 5.39 4.72 3.58 4.25 7.31 8.33 11.1 12.4 1.72 2.1 1.72 2.1 1.72 4.1h2c1.67 3.33 3.33 6.67 5 10 0.36 0.64 0.73 1.29 1.1 1.95 2.08 4.73 2.04 9.88 2.11 15 0.01 0.67 0.02 1.33 0.03 2.02 0.03 2.17 0.05 4.35 0.08 6.52 0.02 1.52 0.04 3.03 0.06 4.55 0.05 3.97 0.1 7.95 0.15 11.9 0.05 4.07 0.11 8.13 0.16 12.2 0.11 7.96 0.21 15.9 0.31 23.9 1.49 0.5 1.49 0.5 3 1 1.06 1.67 1.06 1.67 2 3.75 1.07 2.29 2.12 4.46 3.44 6.63 0.51 0.86 1.03 1.73 1.56 2.62 0.43 0.58 0.86 1.16 1.3 1.75 5.46 8.58 5 20.4 3.7 30.2-0.82 2.26-0.82 2.26-2 4-6.86 1.55-14 1.1-21 1 0.01 0.63 0.02 1.26 0.03 1.91 0.04 2.88 0.07 5.77 0.09 8.65 0.02 0.99 0.04 1.98 0.06 3 0.03 5.54-0.15 10.3-2.18 15.4-2.25 1.62-2.25 1.62-5 2-3.19-1-3.19-1-6-3-3.09-6.34-2.07-13.4-1.83-20.3 0.01-0.96 0.03-1.92 0.05-2.9 0.03-0.88 0.06-1.75 0.09-2.65-0.1-0.71-0.2-1.42-0.31-2.15-1.49-0.99-1.49-0.99-3-2-0.33-1.88-0.33-1.88-0.25-4 0.02-0.7 0.03-1.4 0.05-2.12 0.2-1.88 0.2-1.88 1.2-3.88 1.89-0.67 1.89-0.67 4.25-1.19 0.77-0.18 1.54-0.36 2.33-0.54 2.72-0.3 4.75 0.19 7.42 0.73 2.11-0.08 4.21-0.23 6.31-0.44 1.07-0.1 2.14-0.2 3.24-0.31 0.81-0.08 1.62-0.16 2.45-0.25 0.32-8.2 0.32-8.2-2-16l-2-1c-0.84-1.36-1.63-2.77-2.38-4.19-1.48-2.79-2.94-5.25-4.81-7.81-4.65-7.71-4.06-16.6-3.93-25.3 0-1.26 0.01-2.52 0.02-3.81 0.02-4 0.06-8 0.1-12 0.05-5.28 0.09-10.6 0.12-15.8 0.02-1.2 0.04-2.4 0.06-3.64 0.03-5.92-0.21-10.8-2.18-16.4-0.37-2.33-0.71-4.66-1-7h-2c-1-1.67-2-3.33-3-5l-2.19-2.19c-2.5-2.5-4.62-5.03-6.81-7.81-4.14-5.35-4.14-5.35-9-10-2.71-0.42-2.71-0.42-5 0-0.19 0.96-0.19 0.96-0.38 1.94-0.2 0.68-0.41 1.36-0.62 2.06-0.99 0.5-0.99 0.5-2 1-0.5 1.48-0.5 1.48-1 3-1.64 1.69-3.31 3.35-5 5-0.91 1.07-1.8 2.16-2.69 3.25-2.31 2.75-2.31 2.75-4.31 3.75-0.5 0.85-0.99 1.69-1.5 2.56-0.5 0.81-0.99 1.61-1.5 2.44h-2c-0.01 0.78-0.02 1.55-0.03 2.36-0.1 7.37-0.2 14.7-0.31 22.1-0.05 3.79-0.11 7.58-0.16 11.4-0.05 3.66-0.1 7.32-0.15 11-0.02 1.39-0.04 2.78-0.06 4.16-0.29 23.4-0.29 23.4-3.67 29.6-0.42 0.82-0.84 1.64-1.27 2.48-1.35 1.9-1.35 1.9-4.35 2.9-0.12 0.56-0.25 1.11-0.38 1.69-0.77 2.85-2.38 4.42-4.28 6.62-4.71 5.93-5.96 11.2-5.34 18.7 3.06 1.02 4.6 1.01 7.75 0.74 0.92-0.07 1.84-0.13 2.78-0.2 1.94-0.15 3.87-0.31 5.8-0.49 7.06-0.48 7.06-0.48 10.3 1.77 1.61 2.52 2.24 4.19 2.39 7.18-0.75 2.25-0.75 2.25-2 4-0.99 0.33-1.98 0.66-3 1-0.01 0.77-0.02 1.53-0.03 2.32-0.05 3.48-0.14 6.95-0.22 10.4-0.01 1.21-0.03 2.41-0.04 3.66-0.04 1.16-0.07 2.32-0.1 3.51-0.02 1.07-0.04 2.14-0.06 3.24-0.68 3.5-1.7 4.74-4.55 6.84-6.21-0.21-6.21-0.21-9-3-0.32-2.61-0.32-2.61-0.41-5.88-0.04-1.17-0.08-2.34-0.12-3.54-0.03-1.22-0.06-2.44-0.09-3.7-0.04-1.24-0.08-2.47-0.12-3.74-0.1-3.04-0.18-6.09-0.26-9.14-1.26-0.12-2.53-0.24-3.83-0.37-1.66-0.17-3.32-0.34-4.98-0.51-0.84-0.07-1.67-0.15-2.53-0.23-0.8-0.09-1.6-0.17-2.43-0.26-0.74-0.07-1.48-0.14-2.24-0.22-1.99-0.41-1.99-0.41-4.99-2.41-1.54-3.71-1.15-7.86-1.12-11.8-0.01-0.69-0.01-1.38-0.02-2.08 0.02-6.25 0.3-12.4 3.14-18.1l2-1c1.01-1.66 2.01-3.33 3-5 0.7-0.87 1.4-1.73 2.12-2.62 2.05-2.32 2.05-2.32 2.88-5.38 0.76-0.68 0.76-0.68 1.54-1.37 2.02-2.25 1.85-3.73 1.88-6.73 0.01-1.05 0.03-2.09 0.05-3.16 0-1.13 0-2.27 0.01-3.43 0.01-1.18 0.03-2.35 0.04-3.56 0.05-3.77 0.08-7.54 0.1-11.3 0.05-4.92 0.11-9.84 0.17-14.8 0.01-1.18 0.02-2.37 0.04-3.59 0.12-9.38 0.51-18.7 1.17-28.1 1.49-0.5 1.49-0.5 3-1 0.08-0.68 0.16-1.36 0.25-2.06 2.5-9.8 10.7-18.1 17.8-24.9 1.58-1.86 3.13-3.74 4.67-5.64 0.44-0.45 0.88-0.9 1.33-1.36h2c0.1-0.59 0.2-1.19 0.31-1.8 2.31-7.35 8.86-8.92 15.7-8.2z" fill="#5D8FE5"/>
<path transform="translate(462,198)" d="m0 0v2c0.99 0.33 1.98 0.66 3 1 1 1.75 1 1.75 1 4-2.12 2.44-2.12 2.44-5 5l-6 6c-4.73-0.36-7.34-1.07-11-4-9.08-2.31-19.1-1.6-27.7 2.19-3.29 2.58-5.75 5.52-8.31 8.81-0.74 0.81-0.74 0.81-1.49 1.64-5.93 7.45-4.04 18.3-3.12 27.2 0.73 3.81 2.37 6.07 4.61 9.18v2h2v2c0.56 0.27 1.11 0.54 1.69 0.81 1.59 0.82 3.15 1.7 4.69 2.63 0.86 0.51 1.73 1.03 2.62 1.56 0.84 0.52 1.68 1.05 2.55 1.59 4.56 1.87 8.45 1.74 13.3 1.6 0.87-0.02 1.75-0.03 2.66-0.04 2.15-0.04 4.31-0.09 6.46-0.15l1-2c1.36-0.4 1.36-0.4 2.75-0.81 5.23-1.91 7.58-4.78 9.94-9.75 0.43-1.14 0.86-2.27 1.31-3.44 0.65-1.34 1.32-2.67 2-4-0.78-0.02-1.55-0.04-2.35-0.06-3.51-0.1-7.02-0.2-10.5-0.32-1.22-0.03-2.44-0.06-3.7-0.09-1.17-0.04-2.34-0.08-3.54-0.12-1.62-0.04-1.62-0.04-3.27-0.09-2.61-0.32-2.61-0.32-4.61-2.32-0.15-2.91-0.19-5.72-0.12-8.62 0-0.81 0.01-1.61 0.02-2.43 0.03-1.99 0.06-3.97 0.1-5.95 8.51-1.05 17-1.28 25.5-1.35 1.61-0.02 3.22-0.04 4.83-0.08 2.34-0.06 4.69-0.08 7.03-0.09 1.08-0.04 1.08-0.04 2.18-0.07 2.03 0.01 2.03 0.01 5.42 0.59 3.15 3.76 3.36 6.75 3.25 11.6-0.02 1.12-0.03 2.23-0.05 3.38-0.17 2.55-0.53 4.62-1.2 7.06l-0.75 5.19c-1.23 6.93-4.4 12-8.25 17.8h-2c-0.21 0.56-0.41 1.11-0.62 1.69-3.83 6.42-12 11.2-19.2 13-1.75 0.34-3.5 0.65-5.26 0.92-1.97 0.17-1.97 0.17-2.97 1.36-2.62 0.13-5.2 0.19-7.81 0.19-0.73 0.01-1.45 0.02-2.2 0.03-3.89 0.02-6.65-0.2-9.99-2.22-1.3-0.37-2.62-0.71-3.94-1-3.16-0.74-6.08-1.7-9.06-3v-2c-1.42-0.46-1.42-0.46-2.88-0.94-3.12-1.06-3.12-1.06-5.12-2.06v-2c-0.56-0.21-1.11-0.41-1.69-0.62-7.29-4.34-13.1-15-15.8-22.9-3.62-17.2-0.49-30.8 8.41-45.8 17.8-23.8 45.7-27.4 71.1-13.8z" fill="#42AA63"/>
<path transform="translate(966 188)" d="m0 0c1.65-0.01 1.65-0.01 3.33-0.02h3.63c1.22-0.01 2.45-0.01 3.71-0.01 2.6-0.01 5.2-0.01 7.8-0.01 3.97 0 7.94-0.02 11.9-0.04 2.53 0 5.05 0 7.58-0.01 1.18 0 2.37-0.01 3.59-0.02 8.25 0.03 14.4 1.22 21.9 4.57 0.9 0.39 1.8 0.77 2.73 1.17 7.59 4.34 11.1 11.4 13.6 19.5 1.2 8.79 0.73 18.2-4 26-1.33 0.68-2.66 1.35-4 2-0.7 1.31-1.37 2.65-2 4-4.55 4.46-8.64 6.73-15 7 1.93 4.29 4.27 7.83 7.13 11.5 2.79 3.68 5.44 7.47 8.1 11.2 3.03 4.26 6.21 8.36 9.59 12.4 1.18 1.87 1.18 1.87 1.18 5.87-3.18 1.05-5.54 1.16-8.88 1.18-1.03 0.02-2.06 0.03-3.12 0.05-3.21-0.25-5.19-0.65-8-2.23-2.07-2.52-2.07-2.52-4.13-5.69-0.77-1.18-1.55-2.35-2.33-3.52-0.62-0.93-0.62-0.93-1.24-1.87-2.26-3.34-4.66-6.56-7.05-9.8-1.32-1.78-2.64-3.57-3.95-5.36-0.91-1.23-1.83-2.47-2.74-3.7-3.56-4.84-3.56-4.84-3.56-7.06-0.99 0.49-0.99 0.49-2 1-1.66 0.14-3.32 0.22-4.98 0.28-1.47 0.05-1.47 0.05-2.97 0.11-2.08 0.07-4.16 0.14-6.24 0.21-0.98 0.04-1.96 0.08-2.97 0.11-0.91 0.03-1.81 0.06-2.74 0.1-2.09-0.04-2.09-0.04-3.1 1.19-0.16 2.66-0.26 5.3-0.32 7.97-0.02 0.8-0.04 1.59-0.06 2.42-0.07 2.55-0.13 5.11-0.19 7.67-0.04 1.73-0.08 3.46-0.13 5.19l-0.3 12.8c-2.11 0.05-4.21 0.09-6.32 0.12-1.17 0.02-2.34 0.05-3.55 0.07-3.13-0.19-3.13-0.19-6.13-2.19-0.36-2.18-0.36-2.18-0.34-4.91v-3.1c0.01-1.1 0.03-2.21 0.04-3.35 0.01-1.13 0.01-2.25 0.02-3.42 0.01-3.62 0.05-7.23 0.09-10.8 0.01-2.45 0.03-4.9 0.04-7.34 0.03-6.01 0.08-12 0.15-18 2.82-0.81 5.31-1.12 8.24-1.1 0.83 0 1.66 0 2.51 0.01 0.89 0.01 1.78 0.01 2.69 0.02 1.39 0.01 1.39 0.01 2.81 0.01 3.94 0.02 7.89 0.05 11.8 0.08 2.89 0.01 5.78 0.03 8.66 0.04 0.88 0.01 1.76 0.01 2.66 0.02 12.1 0.45 12.1 0.45 22.6-4.46 0.73-0.61 1.47-1.21 2.22-1.84 3.81-3.97 3.05-9.38 2.99-14.6-0.39-4.65-1.28-6.63-4.27-10.2-6.24-4.67-11.8-4.59-19.4-4.58-1.18-0.01-2.37-0.03-3.59-0.04-3.76-0.04-7.53-0.06-11.3-0.07-3.78-0.03-7.56-0.07-11.4-0.1-2.35-0.03-4.7-0.04-7.05-0.05-1.06-0.01-2.12-0.02-3.21-0.02-0.93-0.01-1.87-0.01-2.83-0.01-2.24-0.13-2.24-0.13-4.24-1.13-0.03-2.32-0.05-4.63-0.07-6.94-0.01-1.29-0.02-2.58-0.03-3.9 0.16-5.06 1.66-4.29 6.24-4.31z" fill="#353D47"/>
<path transform="translate(1192,188)" d="m0 0c15.2-1.07 15.2-1.07 19.4 1.38 1.53 1.82 2.58 3.5 3.64 5.62 2.75 4.79 6.02 9.09 9.36 13.5 1.64 2.52 1.64 2.52 1.64 5.52h3c0.49 2.47 0.49 2.47 1 5h2c1.95 2.3 1.95 2.3 4.12 5.31 0.73 0.99 1.45 1.97 2.2 2.99 1.68 2.7 1.68 2.7 1.68 5.7h2c1.38 1.67 2.68 3.42 3.94 5.19 0.69 0.96 1.38 1.92 2.09 2.92 2.84 4.17 5.21 8.15 6.97 12.9h2l2 5h2v2h2c0-0.89 0-1.77-0.01-2.68-0.02-8.33-0.03-16.7-0.04-25-0.01-4.28-0.01-8.56-0.03-12.8-0.01-4.13-0.01-8.27-0.01-12.4-0.01-1.57-0.01-3.15-0.02-4.73v-6.62c-0.01-1.25-0.01-2.51-0.01-3.8 0.12-2.94 0.12-2.94 1.12-4.94 2.29-0.05 4.58-0.09 6.88-0.12 1.91-0.04 1.91-0.04 3.86-0.08 3.26 0.2 3.26 0.2 5.26 2.2 0.25 1.84 0.25 1.84 0.25 4.11 0 0.86 0.01 1.72 0.01 2.6-0.01 0.95-0.01 1.89-0.02 2.86 0 1 0.01 1.99 0.01 3.02 0 3.29-0.01 6.59-0.02 9.88v6.85c0 4.78-0.01 9.57-0.02 14.4-0.02 6.14-0.03 12.3-0.02 18.4 0 4.72-0.01 9.43-0.02 14.1v6.81c-0.01 3.16-0.01 6.32-0.02 9.48v2.87c-0.04 6.47-0.04 6.47-1.15 7.58-1.96 0.1-3.92 0.13-5.88 0.12-1.06 0.01-2.13 0.01-3.24 0.01-2.88-0.13-2.88-0.13-5.88-1.13v-3h-2c-1.35-1.99-2.69-3.99-4-6l-2-1c-1.58-2.63-2-3.87-2-7-0.99-0.33-1.98-0.66-3-1-1.5-1.67-1.5-1.67-3-3.75-0.52-0.72-1.04-1.44-1.58-2.19-1.58-2.29-3.02-4.65-4.42-7.06-0.56-0.7-1.11-1.4-1.69-2.12-1.31-1.88-1.31-1.88-1.31-4.88h-2c-1.59-2.01-1.59-2.01-3.38-4.69-1.94-2.87-3.84-5.58-6.06-8.25-1.56-2.06-1.56-2.06-1.56-5.06h-2c-0.43-0.96-0.43-0.96-0.88-1.94-0.95-2.21-0.95-2.21-3.12-3.06-1.03-1.65-2.02-3.32-3-5-3-4.72-6.14-9.25-9.62-13.6-2.06-2.59-3.88-5.1-5.44-8-1.92-3.34-4.01-5.96-6.57-8.8-2.29-2.64-3.37-4.03-3.37-7.58z" fill="#353D47"/>
<path transform="translate(659 325)" d="m0 0h2.35c0.9-0 1.79-0.01 2.72-0.01 0.98 0 1.97 0.01 2.99 0.01 1.05-0 2.1-0 3.17-0.01 3.53 0 7.06 0.01 10.6 0.02 2.52 0 5.04-0.01 7.56-0.01 6.15-0 12.3 0 18.4 0.01 7.16 0.01 14.3 0.01 21.5 0.01 12.8 0 25.5 0.01 38.3 0.02 12.4 0.02 24.8 0.02 37.2 0.02h2.31 2.31c14.1 0 28.2 0.01 42.3 0.02h15c6.71 0 13.4 0.01 20.1 0.02h7.41c3.36 0 6.72 0.01 10.1 0.02 0.99-0.01 1.98-0.01 3-0.01 1.34 0.01 1.34 0.01 2.71 0.01h2.35c1.76 0.13 1.76 0.13 2.76 1.13v12h-257v-2l-2-1c-0.19-6.06-0.19-6.06 0-8 2-2 2-2 3.89-2.25z" fill="#FCFEFE"/>
<path transform="translate(792,218)" d="m0 0c2.69 4.61 3.45 8.4 3.48 13.6 0.01 0.73 0.03 1.46 0.04 2.21 0.05 2.32 0.08 4.64 0.1 6.96 0.05 3.03 0.11 6.06 0.17 9.08 0.01 0.75 0.02 1.49 0.04 2.26 0.15 7.96 0.64 15.9 1.17 23.8 0.59 0.17 1.18 0.34 1.78 0.51 8.57 2.51 16.3 6.71 22.2 13.5 1.08 1.18 1.08 1.18 2.19 2.38 2.21 3.2 2.92 5.85 3.81 9.62h2c0.51 1.6 1 3.21 1.5 4.81 0.28 0.9 0.56 1.79 0.84 2.71 0.66 2.48 0.66 2.48 0.66 5.48l-11 1v-2c-0.99 0.5-0.99 0.5-2 1-1.9 0.1-3.81 0.13-5.72 0.13-1.8 0-1.8 0-3.63 0.01-1.3 0-2.6-0.01-3.94-0.01s-2.68 0-4.02 0.01c-2.8 0-5.61 0-8.42-0.01-3.61-0.01-7.22 0-10.8 0-2.77 0.01-5.54 0.01-8.3 0-1.98 0-3.96 0.01-5.94 0.01-1.19 0-2.39-0.01-3.62-0.01h-3.21c-2.38-0.13-2.38-0.13-3.38-1.13-0.99 0.5-0.99 0.5-2 1-3.86 1.29-6.94 1.14-11 1-1.31-5.71-0.58-9.12 2.19-14.1 0.3-0.6 0.61-1.19 0.92-1.81 2.75-5.21 5.85-9.88 10.9-13.1h2c0.5-1.49 0.5-1.49 1-3 2.44-1.57 2.44-1.57 5.56-3.12 1.52-0.78 1.52-0.78 3.07-1.58 2.78-1.07 4.69-1.56 7.58-1.88 1.88-0.21 1.88-0.21 3.79-0.42-0.02-1-0.02-1-0.03-2.02-0.11-6.92-0.19-13.8-0.24-20.8-0.03-2.58-0.06-5.17-0.11-7.75-0.06-3.72-0.09-7.43-0.11-11.2-0.04-1.73-0.04-1.73-0.08-3.5 0-8.94 0-8.94 2.92-12 2.89-1.91 4.26-2.23 7.65-1.75z" fill="#EB4F38"/>
<path transform="translate(1304,188)" d="m0 0c2.29-0.05 4.58-0.09 6.88-0.12 1.91-0.04 1.91-0.04 3.86-0.08 3.26 0.2 3.26 0.2 5.26 2.2 0.27 1.97 0.27 1.97 0.3 4.4 0.02 0.91 0.04 1.82 0.05 2.76 0.01 0.99 0.02 1.98 0.03 2.99 0.02 1.01 0.03 2.02 0.05 3.07 0.05 3.24 0.09 6.48 0.13 9.72 0.05 3.23 0.09 6.47 0.15 9.71 0.03 2.01 0.05 4.03 0.08 6.05 0.01 0.91 0.02 1.83 0.04 2.77 0.01 0.8 0.02 1.61 0.03 2.44 0.07 2.28 0.07 2.28 1.14 5.09 6.04-5.82 6.04-5.82 11.6-12.1 2-2.36 3.85-4.16 6.19-6.13 4.12-3.5 7.64-7.41 11.2-11.5 2.26-2.53 4.61-4.93 7.04-7.29 0.74-0.74 1.48-1.49 2.25-2.25 0.91-0.91 1.82-1.81 2.75-2.75 0.82-1.15 0.82-1.15 1.65-2.32 2.76-3.48 5.06-6.27 9.62-7.08 5.6-0.39 11.1-0.06 16.7 0.4 0 4 0 4-2.19 6.44-0.93 0.84-1.85 1.69-2.81 2.56-2.74 2.67-5.3 5.33-7.69 8.31-1.14 1.33-1.14 1.33-2.31 2.69h-2c-0.23 0.56-0.45 1.11-0.69 1.69-1.3 2.3-2.77 3.87-4.68 5.68-3.01 3.02-5.75 6.3-8.54 9.52-2.09 2.11-2.09 2.11-5.09 3.11-0.25 0.99-0.25 0.99-0.5 2-0.25 0.99-0.25 0.99-0.5 2-0.99 0.33-1.98 0.66-3 1-0.49 0.99-0.49 0.99-1 2-0.49 0.99-0.49 0.99-1 2-0.99 0.33-1.98 0.66-3 1-0.69 1.32-1.35 2.66-2 4-1.56 2.14-3.21 4.03-5 6h-2c-0.25 0.56-0.49 1.12-0.75 1.7-1.46 2.69-3.22 4.76-5.25 7.05-0.7 0.8-1.4 1.6-2.12 2.42-1.88 1.83-1.88 1.83-3.88 1.83-0.29 0.62-0.58 1.24-0.88 1.88-1.12 2.12-1.12 2.12-3.12 4.12-0.36 2.6-0.36 2.6-0.38 5.63-0.03 1.12-0.07 2.23-0.1 3.38-0.03 1.17-0.06 2.35-0.08 3.55-0.06 2.32-0.13 4.63-0.19 6.94-0.03 1.03-0.05 2.06-0.08 3.12-0.17 2.38-0.17 2.38-1.17 3.38-2.31 0.1-4.62 0.13-6.94 0.12-1.9 0.01-1.9 0.01-3.84 0.01-3.22-0.13-3.22-0.13-5.22-1.13-0.02-13.3-0.04-26.5-0.05-39.8-0.01-6.16-0.01-12.3-0.03-18.5-0.01-5.94-0.01-11.9-0.01-17.8-0.01-2.27-0.01-4.54-0.02-6.81v-9.51c-0.01-0.95-0.01-1.89-0.01-2.87v-2.61-2.27c0.12-1.84 0.12-1.84 1.12-3.84z" fill="#353D47"/>
<path transform="translate(850 159)" d="m0 0c0.87-0.01 1.74-0.03 2.64-0.04 1.42-0.01 1.42-0.01 2.87-0.02 0.97-0.01 1.95-0.02 2.95-0.03l6.21-0.03c3.14-0.02 6.28-0.06 9.43-0.1l6.03-0.03c0.93-0.02 1.87-0.03 2.83-0.05 7.16 0.02 13.6 1.46 19 6.44 0.43 0.65 0.86 1.3 1.31 1.97 0.45 0.65 0.91 1.3 1.37 1.97 2.49 4.38 3.45 7.93 3.47 13 0.01 1.17 0.03 2.35 0.04 3.56v3.88l0.03 4.11c0.03 3.72 0.05 7.43 0.06 11.1 0.02 3.88 0.04 7.77 0.07 11.6 0.04 7.35 0.08 14.7 0.11 22 0.04 8.36 0.09 16.7 0.14 25.1 0.11 17.2 0.19 34.4 0.27 51.6l-6.93 0.06c-1.29 0.01-2.58 0.02-3.9 0.03-3.17-0.09-3.17-0.09-4.17-1.09-0.09-1.79-0.12-3.58-0.12-5.36v-3.53c0.01-1.93 0.01-1.93 0.01-3.89v-4.08c0-3.71 0.01-7.41 0.01-11.1 0.01-3.87 0.01-7.73 0.01-11.6 0-7.32 0.01-14.6 0.02-22 0.01-8.33 0.02-16.7 0.02-25 0.02-17.2 0.03-34.3 0.05-51.4-0.99-0.33-1.98-0.66-3-1v-2c-1.3 0.01-2.61 0.02-3.95 0.03-4.86 0.03-9.71 0.06-14.6 0.08-2.1 0.01-4.2 0.02-6.3 0.04-3.02 0.02-6.04 0.03-9.06 0.04-1.41 0.02-1.41 0.02-2.84 0.03-8.39 0.01-8.39 0.01-12.3-2.22-1.56-2.25-1.56-2.25-2-5 2.79-5.17 4.44-7.11 10.2-7.18z" fill="#E9BF2C"/>
<path transform="translate(695 159)" d="m0 0h3.02c2.09 0.01 4.18 0.02 6.27 0.05 3.2 0.04 6.4 0.04 9.59 0.04 2.04 0.01 4.08 0.02 6.12 0.03 0.95 0.01 1.9 0.01 2.89 0.01 8.59 0.12 8.59 0.12 12.3 2.33 2.32 3.47 2.51 4.92 2 9-2.96 2.9-5.15 3.38-9.22 3.43-1.04 0.02-2.08 0.04-3.16 0.06-1.67 0.01-1.67 0.01-3.38 0.02-1.72 0.03-1.72 0.03-3.48 0.06-3.67 0.05-7.34 0.09-11 0.12-2.48 0.03-4.97 0.07-7.46 0.1-6.09 0.09-12.2 0.16-18.3 0.21-2.44 6.66-2.26 13.1-2.22 20.1v3.96c0 3.57 0.01 7.14 0.02 10.7 0.01 3.74 0.02 7.47 0.02 11.2 0 7.07 0.02 14.1 0.04 21.2 0.02 8.05 0.03 16.1 0.04 24.2 0.02 16.6 0.06 33.1 0.1 49.7-2.14 0.03-4.29 0.05-6.43 0.06-1.2 0.02-2.39 0.03-3.62 0.04-2.95-0.1-2.95-0.1-3.95-1.1-0.1-1.77-0.14-3.54-0.14-5.3-0.01-1.16-0.02-2.31-0.02-3.49-0.01-1.28-0.01-2.55-0.01-3.86-0.01-1.35-0.02-2.7-0.02-4.04-0.02-3.67-0.03-7.34-0.04-11 0-2.3-0.01-4.59-0.02-6.88-0.02-7.18-0.03-14.4-0.04-21.5-0.01-8.28-0.03-16.6-0.07-24.8-0.03-6.4-0.05-12.8-0.05-19.2 0-3.82-0.01-7.64-0.04-11.5-0.02-3.6-0.03-7.2-0.02-10.8 0-1.94-0.01-3.88-0.03-5.83 0.05-8.54 1.02-14.2 7.19-20.5 7.24-5.37 14.2-6.85 23.1-6.71z" fill="#E9BF2C"/>
<path transform="translate(597,190)" d="m0 0c1.32 2.64 1.13 4.64 1.13 7.59 0 1.67 0 1.67 0.01 3.37-0.01 1.17-0.01 2.34-0.02 3.54 0.01 1.75 0.01 1.75 0.02 3.54 0 1.11-0.01 2.22-0.01 3.37v3.1c-0.13 2.49-0.13 2.49-1.13 4.49 0.32 2 0.66 4 1 6 0.09 2.36 0.13 4.73 0.13 7.09v2.07c0.01 2.23 0.01 4.47 0 6.7 0 1.56 0 3.12 0.01 4.68 0 3.25 0 6.51-0.01 9.76-0.01 4.19 0 8.37 0 12.6 0.01 3.21 0.01 6.42 0 9.64 0 1.54 0 3.08 0.01 4.62 0 2.15-0.01 4.3-0.01 6.45v3.7c-0.13 2.74-0.13 2.74-1.13 3.74-2.51 0.1-4.99 0.14-7.5 0.12-0.7 0.01-1.41 0.01-2.13 0.02-5.24-0.01-5.24-0.01-6.37-1.14-0.15-3.09-0.24-6.16-0.28-9.25-0.03-1.39-0.03-1.39-0.06-2.81-0.08-3.99-0.14-7.98-0.21-12-0.05-2.9-0.11-5.81-0.17-8.71-0.01-0.91-0.03-1.82-0.04-2.76 0.33-4.07 0.33-4.07-1.24-7.49-2.12-0.08-4.25-0.08-6.37-0.06-1.3 0.01-2.59 0.01-3.93 0.02l-6.21 0.06c-2 0.02-3.99 0.03-5.99 0.04-1.79 0.02-1.79 0.02-3.63 0.04-2.87-0.1-2.87-0.1-4.87-1.1-0.03-2.48-0.05-4.96-0.06-7.44-0.02-1.06-0.02-1.06-0.03-2.14-0.01-1.81 0.04-3.61 0.09-5.42 1.91-1.91 5.34-1.24 7.88-1.32 0.69-0.02 1.37-0.04 2.08-0.06 2.2-0.06 4.4-0.12 6.6-0.18 1.49-0.05 2.98-0.09 4.47-0.13 3.66-0.11 7.31-0.21 11-0.31-0.01-1.85-0.01-1.85-0.02-3.73-0.01-4.56-0.03-9.12-0.03-13.7-0.01-1.97-0.02-3.95-0.03-5.92-0.01-2.84-0.01-5.67-0.02-8.51 0-0.88-0.01-1.77-0.01-2.68 0-6.25 0-6.25 1.11-8.48 3.09-0.41 3.09-0.41 6.94-0.62 1.26-0.08 2.53-0.15 3.84-0.23 1.74-0.08 3.48-0.15 5.22-0.15z" fill="#353D47"/>
<path transform="translate(462,198)" d="m0 0v2c0.99 0.33 1.98 0.66 3 1 1 1.75 1 1.75 1 4-2.12 2.44-2.12 2.44-5 5l-6 6c-4.73-0.36-7.34-1.07-11-4-9.08-2.31-19.1-1.6-27.7 2.19-3.27 2.56-5.85 5.47-8.31 8.81-0.64 0.78-0.64 0.78-1.29 1.58-4.47 6.08-4.31 11.6-4.02 18.9 0.02 1.11 0.04 2.22 0.07 3.36 0.05 2.71 0.14 5.43 0.24 8.14-0.89 0.42-1.78 0.84-2.7 1.27-3.03 1.59-5.42 3.26-8.05 5.42-4.03 3.31-4.03 3.31-6.25 3.31-5.56-10.5-6.45-23.8-3.86-35.4 4.43-13.5 12.7-26.3 25.2-33.3 18.8-9.43 36.4-8.13 54.6 1.68z" fill="#EB4F38"/>
<path transform="translate(268,190)" d="m0 0c0.97 5.67 1.14 11.1 1.11 16.9v2.93c0 3.18 0 6.35-0.01 9.53 0 2.21-0.01 4.42-0.01 6.63 0 5.8-0.01 11.6-0.02 17.4-0.01 5.93-0.02 11.8-0.02 17.8-0.01 11.6-0.03 23.2-0.05 34.8-3.07 1.02-5.29 1.17-8.5 1.19-0.96 0.01-1.92 0.03-2.91 0.04-2.59-0.23-2.59-0.23-5.59-2.23-0.36-1.87-0.36-1.87-0.34-4.17v-2.61c0.02-0.93 0.03-1.86 0.05-2.82 0-0.95 0.01-1.9 0.01-2.89 0.02-3.04 0.05-6.09 0.09-9.13 0.02-2.07 0.03-4.13 0.04-6.19 0.04-5.07 0.09-10.1 0.15-15.2-0.93 0.01-1.86 0.01-2.81 0.02-3.44 0.01-6.88 0.03-10.3 0.03l-4.47 0.03c-2.14 0.01-4.28 0.01-6.42 0.02-1.29 0-2.58 0.01-3.91 0.01-3.07-0.11-3.07-0.11-5.07-1.11-0.03-2.29-0.05-4.58-0.06-6.88-0.01-1.27-0.03-2.55-0.04-3.86 0.1-3.26 0.1-3.26 1.1-5.26h32c-0.01-3.09-0.02-6.18-0.04-9.37 0-2.98-0.01-5.96-0.01-8.95-0.01-2.08-0.02-4.15-0.03-6.23-0.01-2.98-0.01-5.97-0.02-8.95-0.01-1.4-0.01-1.4-0.01-2.83v-2.61c-0.01-0.76-0.01-1.52-0.01-2.31 0.12-1.75 0.12-1.75 1.12-2.75 1.95-0.24 3.91-0.41 5.88-0.56 1.6-0.13 1.6-0.13 3.24-0.26 1.96-0.12 3.92-0.18 5.88-0.18z" fill="#353D47"/>
<path transform="translate(1118 187)" d="m0 0c1.57 0.01 3.14 0.04 4.71 0.07 0.8 0.01 1.6 0.02 2.43 0.03 1.98 0.02 3.96 0.06 5.95 0.1 0.19 0.57 0.39 1.14 0.59 1.74 0.9 2.63 1.81 5.25 2.72 7.88 0.46 1.36 0.46 1.36 0.93 2.74 1.65 4.74 3.48 9.16 5.76 13.6 0.64 1.94 1.25 3.9 1.81 5.87 2.85 9.55 6.42 18.8 10.2 28.1 4.17 10.3 7.64 20.9 11.1 31.5 0.81 2.38 1.67 4.73 2.56 7.09 0.96 2.53 1.7 4.88 2.32 7.5-2.78 0.08-5.54 0.14-8.32 0.18-0.78 0.03-1.57 0.05-2.38 0.08-0.75 0.01-1.51 0.02-2.29 0.03-0.7 0.01-1.4 0.03-2.11 0.05-2.54-0.46-3.33-1.33-4.9-3.34-1.02-2.01-1.02-2.01-1.91-4.29-0.49-1.25-0.49-1.25-1-2.53-0.34-0.89-0.68-1.77-1.03-2.68-0.36-0.92-0.72-1.83-1.08-2.76-2.05-5.26-4.04-10.5-5.93-15.8-1.15-3.16-2.38-6.28-3.62-9.4-2.8-7.1-5.4-14.2-7.51-21.5-1.15-3.73-2.52-7.35-3.92-11-6.18-16.2-6.18-16.2-8.41-24-0.71-2.4-1.6-4.7-2.59-6.99 2-2 2-2 5.91-2.2z" fill="#353D47"/>
<path transform="translate(527,190)" d="m0 0c1.15 2.31 1.13 3.61 1.13 6.18 0 0.88 0 1.75 0.01 2.66-0.01 0.96-0.01 1.93-0.01 2.92v3.07c0.01 3.36 0.01 6.72 0 10.1 0 2.33 0 4.65 0.01 6.98 0 4.88 0 9.76-0.01 14.6-0.01 6.27 0 12.5 0 18.8 0.01 4.81 0.01 9.61 0 14.4 0 2.31 0 4.62 0.01 6.94 0 3.22-0.01 6.45-0.01 9.67 0 0.97 0 1.93 0.01 2.93-0.01 0.87-0.01 1.74-0.01 2.64v2.32c-0.13 1.74-0.13 1.74-1.13 2.74-2.1 0.13-4.21 0.18-6.31 0.19-1.15 0.01-2.3 0.03-3.49 0.04-3.14-0.23-4.63-0.52-7.2-2.23-1.82-9.59-1.15-19.8-1.13-29.5 0-1.89 0-3.79-0.01-5.68 0-3.96 0-7.91 0.01-11.9 0.01-5.05 0-10.1 0-15.2-0.01-3.91-0.01-7.82 0-11.7 0-1.87 0-3.73-0.01-5.59 0-2.61 0.01-5.22 0.01-7.83 0-0.76 0-1.52-0.01-2.3 0.02-4.86 0.46-9.53 1.14-14.3 2.08-0.17 4.17-0.33 6.25-0.5 1.16-0.09 2.32-0.19 3.52-0.28 2.4-0.16 4.82-0.22 7.23-0.22z" fill="#36414C"/>
<path transform="translate(198,190)" d="m0 0c1.67 2.93 2.24 4.99 2.21 8.35-0.01 1.29-0.01 1.29-0.01 2.61-0.02 0.94-0.03 1.88-0.05 2.84-0.01 1.49-0.01 1.49-0.02 3.01-0.03 3.29-0.07 6.57-0.12 9.86-0.02 2.28-0.04 4.56-0.07 6.83-0.05 4.78-0.1 9.55-0.16 14.3-0.08 6.13-0.14 12.3-0.2 18.4-0.05 4.7-0.1 9.4-0.16 14.1-0.02 2.26-0.04 4.52-0.07 6.79-0.03 3.15-0.07 6.3-0.11 9.46-0.01 0.94-0.02 1.88-0.03 2.86-0.1 6.44-0.1 6.44-1.21 7.55-2.31 0.1-4.62 0.13-6.94 0.12-1.9 0.01-1.9 0.01-3.84 0.01-3.22-0.13-3.22-0.13-5.22-1.13-1.41-8.54-1.15-17.4-1.13-26.1 0-1.19 0-2.38-0.01-3.6 0-2.49 0.01-4.97 0.01-7.46 0.01-3.8 0-7.6-0.01-11.4 0-2.42 0.01-4.85 0.01-7.28 0-1.13-0.01-2.26-0.01-3.43 0.02-5.05 0.22-9.75 1.14-14.7 0.07-2.37 0.09-4.74 0.06-7.11 0-0.66-0.01-1.31-0.01-1.99-0.01-2.07-0.03-4.14-0.05-6.21-0.03-2.75-0.05-5.49-0.06-8.24-0.02-1.82-0.02-1.82-0.04-3.68 0.1-2.77 0.1-2.77 1.1-3.77 1.95-0.24 3.91-0.41 5.88-0.56 1.6-0.13 1.6-0.13 3.24-0.26 1.96-0.12 3.92-0.18 5.88-0.18z" fill="#36414D"/>
<path transform="translate(341 190)" d="m0 0c1.75 0.02 1.75 0.02 3.54 0.05 2.84 0.2 2.84 0.2 3.84 1.2 0.09 1.38 0.12 2.76 0.12 4.14v2.71c0 0.99-0.01 1.98-0.01 2.99v3.14c0 3.43-0.01 6.87-0.02 10.3v7.12c-0.01 6.27-0.02 12.5-0.03 18.8-0.01 6.38-0.01 12.8-0.02 19.2-0.01 12.5-0.02 25.1-0.04 37.6-2.46-0.14-4.92-0.29-7.38-0.44-0.7-0.04-1.4-0.08-2.12-0.12-5.28-0.33-5.28-0.33-7.5-1.44-0.07-13.2-0.13-26.5-0.16-39.7-0.02-6.15-0.04-12.3-0.07-18.4-0.03-5.94-0.05-11.9-0.06-17.8-0.01-2.27-0.02-4.54-0.03-6.8-0.02-3.17-0.03-6.34-0.03-9.51-0.01-0.94-0.02-1.88-0.03-2.85 0.01-1.3 0.01-1.3 0.01-2.62v-2.27c1.03-5.52 5.19-5.32 9.99-5.21z" fill="#353D47"/>
<path transform="translate(1595,54)" d="m0 0h4c1.32 2.64 1.13 4.64 1.13 7.59 0 1.12 0.01 2.23 0.01 3.37-0.01 1.17-0.01 2.34-0.02 3.54 0.01 1.17 0.01 2.33 0.02 3.54 0 1.11-0.01 2.22-0.01 3.37v3.1c-0.13 2.49-0.13 2.49-1.13 4.49-0.09 1.7-0.12 3.41-0.12 5.12-0.01 1.09-0.01 2.18-0.01 3.3 0 1.21 0.01 2.41 0.01 3.66v3.86c-0.01 3.55 0 7.1 0 10.6 0.01 3.83 0.01 7.65 0.01 11.5v19.9c0.01 9.59 0.02 19.2 0.02 28.8 0 15.6 0.01 31.1 0.01 46.7l0.03 45.3v2.82 14c0.01 38.1 0.03 76.2 0.05 114v3.12c0.06 0.95 0.12 1.9 0.19 2.88-0.19 3.12-0.19 3.12-1.69 5-0.49 0.37-0.99 0.74-1.5 1.12h2v16l-4-1c-0.02-46.5-0.04-93-0.05-139v-16.4c-0.01-1.09-0.01-2.18-0.01-3.31 0-17.7-0.01-35.4-0.02-53.1-0.01-18.1-0.01-36.3-0.01-54.4-0.01-11.2-0.01-22.4-0.02-33.6v-23c0-4.43 0-8.87-0.01-13.3v-12.2-4.42c-0.01-1.99-0.01-3.98 0-5.97v-3.36c0.12-2.46 0.12-2.46 1.12-3.46z" fill="#FDFEFE"/>
<path transform="translate(459 232)" d="m0 0c1.61-0.02 3.22-0.04 4.83-0.08 2.34-0.06 4.68-0.08 7.03-0.09 1.08-0.04 1.08-0.04 2.18-0.07 2.02 0.01 2.02 0.01 5.42 0.59 3.14 3.76 3.36 6.75 3.25 11.6-0.02 1.12-0.03 2.23-0.05 3.38-0.17 2.55-0.53 4.62-1.2 7.06l-0.75 5.19c-1.23 6.93-4.4 12-8.25 17.8h-2l-2 4c-1.94-0.31-1.94-0.31-4-1l-1-3c-1.66-0.69-3.33-1.35-5-2-1.71-1.29-3.38-2.61-5-4 0.31-2.37 0.31-2.37 1-5l3-2c1.06-2.3 2.06-4.64 3-7 0.65-1.34 1.32-2.67 2-4-0.78-0.02-1.56-0.04-2.36-0.06-3.51-0.09-7.01-0.2-10.5-0.31-1.22-0.04-2.44-0.07-3.71-0.1-1.16-0.04-2.33-0.08-3.53-0.12-1.08-0.03-2.16-0.06-3.27-0.09-2.61-0.32-2.61-0.32-4.61-2.32-0.15-2.91-0.19-5.72-0.13-8.62 0.01-0.81 0.02-1.61 0.03-2.43 0.02-1.99 0.06-3.97 0.1-5.95 8.51-1.05 17-1.28 25.5-1.35z" fill="#5D8FE5"/>
<path transform="translate(1100,215)" d="m0 0c3.5 2.89 4.87 5.61 6.26 9.8 0.71 2.22 0.71 2.22 1.7 4.37 2.29 5.51 2.02 8.97 0 14.6-1.2 2.83-2.54 5.55-3.96 8.27-1.94 4.6-3.73 9.25-5.44 13.9-1.18 3.2-2.56 6.28-4 9.37-2.21 4.77-4.05 9.61-5.76 14.6-0.8 2.12-0.8 2.12-1.8 3.12-2.7 0.07-5.37 0.09-8.06 0.06-0.76 0-1.52-0.01-2.3-0.01-1.88-0.01-3.76-0.03-5.64-0.05-1.16-3.48-0.78-4.67 0.25-8.12 0.25-0.89 0.51-1.78 0.77-2.7 0.48-1.08 0.48-1.08 0.98-2.18 1.48-0.5 1.48-0.5 3-1l1-11c1.48-0.5 1.48-0.5 3-1 0.96-2.09 0.96-2.09 1.56-4.62 0.25-0.9 0.5-1.8 0.76-2.73 0.41-1.61 0.82-3.22 1.21-4.83 0.41-1.63 0.93-3.23 1.47-4.82 1.48-0.5 1.48-0.5 3-1 0.48-2.06 0.95-4.13 1.34-6.2 1.87-7.96 5.45-15.6 8.86-23 0.91-1.97 0.91-1.97 1.8-4.8z" fill="#353D47"/>
<path transform="translate(787 290)" d="m0 0c0.93-0.03 1.86-0.06 2.82-0.09 6.5-0.06 10.5 1.07 16.1 4.4v2c0.99 0.33 1.98 0.66 3 1v2h2v2c0.99 0.33 1.98 0.66 3 1 1.38 2.44 1.38 2.44 2.68 5.44 0.44 0.99 0.88 1.98 1.33 3 0.99 2.56 0.99 2.56 0.99 4.56h-60c-1.42-4.24 0.21-7.12 2-11 3.8-6.6 8.21-9.76 15-13 2.33-2.33 7.93-1.28 11.1-1.31z" fill="#FBFEFE"/>
<path transform="translate(800 137)" d="m0 0c1.66 1.07 1.66 1.07 3.66 3.07v3h2c2.71 5.94 4 10.6 2 17-2.54 4.81-6.02 8.93-11 11.4-5.85 1.78-11.9 1.47-17.5-1.07-4.57-2.67-6.89-5.64-8.88-10.6-1.24-6.79-0.51-12.9 3.31-18.8 0.99-0.33 1.98-0.66 3-1l1-3c8.17-3.87 14.3-4.39 22.3-0.07z" fill="#EB4F38"/>
<path transform="translate(1188,214)" d="m0 0c0.99 0.33 1.98 0.66 3 1 0.69 2.06 0.69 2.06 1 4h2c0.27 0.78 0.54 1.57 0.81 2.38 1.04 2.9 1.04 2.9 4.19 4.62v3h2c4.84 4.64 5.1 12.3 5.24 18.6 0.01 2.06 0 4.12-0.01 6.18v3.32c0 2.29-0.01 4.59-0.02 6.89-0.02 3.53-0.02 7.06-0.02 10.6-0.01 2.23-0.02 4.47-0.02 6.7 0 1.06 0 2.12-0.01 3.21 0 0.98-0.01 1.95-0.01 2.95-0.01 1.29-0.01 1.29-0.02 2.6-0.13 1.96-0.13 1.96-1.13 2.96-2.49 0.1-4.95 0.14-7.44 0.12-0.69 0.01-1.39 0.01-2.1 0.02-5.21-0.01-5.21-0.01-7.46-1.14-0.02-4.37-0.04-8.75-0.05-13.1-0.01-1.49-0.02-2.97-0.03-4.45-0.04-8.21 0.06-16.3 1.08-24.4l-2-1 1-35z" fill="#353D47"/>
<path transform="translate(1359,249)" d="m0 0c5.42 2.46 8.89 7.06 12 12v3h2v2c0.99 0.33 1.98 0.66 3 1v3c0.6 0.25 1.19 0.5 1.8 0.76 2.5 1.41 3.65 2.8 5.32 5.12 0.5 0.67 1 1.35 1.51 2.05 1.3 1.97 2.32 3.96 3.37 6.07 0.49 0.45 0.99 0.91 1.5 1.38 2.08 2.25 2.59 4.72 3.5 7.62-2.73 0.08-5.46 0.14-8.19 0.19-1.15 0.04-1.15 0.04-2.33 0.07-5.76 0.08-9.01-0.9-13.3-4.98-0.5-0.59-1-1.17-1.51-1.78-0.51-0.59-1.03-1.18-1.55-1.78-1.14-1.72-1.14-1.72-1.14-4.72h-2c-1.8-1.5-2.88-2.75-3.88-4.88-1.54-2.91-3.77-4.82-6.12-7.12-3.98-4.19-3.98-4.19-4.06-7.5 1.4-3.31 3.41-5.1 6.06-7.5l4-4z" fill="#353D47"/>
<path transform="translate(659 325)" d="m0 0h2.35c1.35-0 1.35-0 2.72-0.01 0.99 0.01 1.98 0.01 3 0.02 1.05 0 2.09-0.01 3.17-0.01 3.53-0 7.07 0.01 10.6 0.02h7.56c5.45 0 10.9 0.01 16.3 0.02 7.87 0.01 15.7 0.02 23.6 0.02 12.8 0.01 25.5 0.02 38.3 0.04 12.4 0.02 24.8 0.03 37.2 0.04h2.32c3.83 0 7.67 0.01 11.5 0.01 31.8 0.02 63.6 0.05 95.4 0.1v3h-254l1 7-1 2-4-2c-0.2-6.06-0.2-6.06 0-8 2-2 2-2 3.89-2.25z" fill="#F6F9F8"/>
<path transform="translate(387,219)" d="m0 0c1.36 0.87 2.71 1.75 4.06 2.62 0.76 0.49 1.51 0.98 2.29 1.48 0.87 0.63 1.75 1.25 2.65 1.9 0.61 0.37 1.22 0.74 1.86 1.11 3.2 2.21 4.9 3.72 5.7 7.62 0.13 3.24 0.05 6.41-0.12 9.65-0.03 1.11-0.07 2.23-0.1 3.38-0.08 2.75-0.2 5.49-0.34 8.24-0.89 0.42-1.78 0.84-2.7 1.27-3.03 1.59-5.42 3.26-8.05 5.42-4.03 3.31-4.03 3.31-6.25 3.31-5.66-10.7-6.35-23.9-3.75-35.6 1.17-3.73 2.82-6.97 4.75-10.4z" fill="#E9BF2C"/>
<path transform="translate(845,282)" d="m0 0c7.74 1.78 14.4 5.35 20 11v2h2c1.35 2.56 2.68 5.12 4 7.69 0.38 0.72 0.76 1.44 1.16 2.18 0.54 1.06 0.54 1.06 1.09 2.14 0.34 0.65 0.67 1.29 1.02 1.95 0.73 2.04 0.73 2.04 0.73 7.04h-12v-2h-2c-1.26-2.91-2-4.8-2-8h-2v-2h-2c-1.69-1.64-3.35-3.31-5-5-4.14-3.72-8.67-4.14-14-5.16-2.98-0.83-4.25-1.33-6-3.84 0.14-2.77 0.55-4.41 2.24-6.63 3.62-2.82 8.43-1.86 12.8-1.37z" fill="#EB4F38"/>
<path transform="translate(742,282)" d="m0 0c2.38 2.53 2.86 4.26 3.5 7.62-0.5 2.38-0.5 2.38-2.31 4.07-2.98 1.22-5.35 1.71-8.5 2.19-6.68 1.08-11.2 3.61-15.9 8.37-2.39 3.76-4.03 7.64-5.75 11.8h-12c-1.14-4.55-0.43-6.63 1-11h2c0.27-0.97 0.54-1.94 0.81-2.94 0.39-1.01 0.79-2.02 1.19-3.06 0.99-0.33 1.98-0.66 3-1l1-2c1-2 1-2 4-3 0.27-0.6 0.54-1.2 0.81-1.81 2.66-4.89 7.44-6.43 12.5-7.94 4.82-1.18 9.76-2.38 14.7-1.25z" fill="#EB4F38"/>
<path transform="translate(796,233)" d="m0 0c2.03 3.35 2.22 5.87 2.12 9.75-0.01 0.98-0.03 1.97-0.05 2.98-0.02 0.75-0.05 1.5-0.07 2.27 0.96-0.28 0.96-0.28 1.94-0.56 0.68-0.15 1.36-0.29 2.06-0.44l1 1c1.67 0.04 3.33 0.04 5 0-0.01 0.67-0.01 1.34-0.02 2.03-0.02 3.05-0.03 6.11-0.04 9.16-0.01 1.05-0.02 2.11-0.03 3.19 0 1.03 0 2.05-0.01 3.1 0 0.94-0.01 1.88-0.01 2.84 0.11 2.66 0.52 5.09 1.11 7.68 1.98 0.66 3.96 1.32 6 2l1 5c-3 1-3 1-5.27 0.07-0.84-0.45-1.68-0.91-2.54-1.38-3.68-1.94-7.21-3.46-11.2-4.69-1.93-1.93-1.42-5.43-1.56-8.06-0.04-0.74-0.09-1.47-0.13-2.23-0.35-6.88-0.42-13.8-0.43-20.6-0.01-1.06-0.01-2.12-0.02-3.21 0-0.99 0.01-1.98 0.01-3v-2.69c0.13-2.16 0.13-2.16 1.13-4.16z" fill="#F6F9F9"/>
<path transform="translate(909,178)" d="m0 0h1c0.83 3.6 1.12 6.92 1.12 10.6v3.39c0 1.22 0 2.43-0.01 3.68v3.91c0 3.52 0 7.05-0.01 10.6 0 3.69-0.01 7.37-0.01 11.1 0 6.98-0.01 14-0.02 20.9-0.01 7.94-0.01 15.9-0.02 23.8-0.01 16.3-0.03 32.7-0.05 49l-3-2c-0.37-2.3-0.37-2.3-0.37-5.23 0-1.11-0.01-2.22-0.01-3.36 0-1.22 0.01-2.45 0.02-3.71v-3.88c-0.01-3.53 0.01-7.05 0.02-10.6 0.02-3.68 0.02-7.37 0.02-11 0-6.19 0.02-12.4 0.04-18.6 0.03-7.95 0.04-15.9 0.04-23.8 0.01-6.82 0.02-13.6 0.03-20.5 0.01-2.19 0.01-4.39 0.01-6.59 0.01-4.09 0.02-8.18 0.04-12.3v-3.7c0.01-1.11 0.01-2.23 0.02-3.37 0-0.97 0.01-1.94 0.01-2.93 0.13-2.43 0.13-2.43 1.13-5.43z" fill="#FEFEFE"/>
<path transform="translate(347,190)" d="m0 0 4 1v106c-3-2-3-2-3.38-3.89-0.01-0.77-0.01-1.54-0.02-2.34-0.01-0.88-0.02-1.77-0.04-2.68 0-0.98 0.01-1.95 0.01-2.96-0.01-1.02-0.02-2.04-0.03-3.1-0.03-3.4-0.04-6.8-0.05-10.2-0.02-2.36-0.04-4.71-0.06-7.06-0.04-6.2-0.07-12.4-0.1-18.6-0.03-6.32-0.08-12.6-0.12-19-0.09-12.4-0.15-24.8-0.21-37.2z" fill="#CACECF"/>
<path transform="translate(271,196)" d="m0 0v100c-0.99-0.33-1.98-0.66-3-1v-98c2-1 2-1 3-1z" fill="#CACECF"/>
<path transform="translate(793,146)" d="m0 0c3 2.62 3.89 4.18 4.44 8.12-0.5 3.24-0.9 3.93-3.44 5.88-2.16 0.4-2.16 0.4-4.5 0.38-0.77 0-1.55 0.01-2.34 0.02-2.66-0.49-3.56-1.25-5.16-3.4-0.42-3.9-0.2-6.7 2-10 3.13-1.56 5.56-1.36 9-1z" fill="#F5F8F7"/>
<path transform="translate(757,205)" d="m0 0 2 2c-0.6 0.74-1.2 1.49-1.81 2.25-1.32 1.65-2.6 3.33-3.81 5.06-0.46 0.56-0.91 1.12-1.38 1.69h-2c-0.75 3.66-1.24 6.42 0 10l-3 2c-0.99 2.47-0.99 2.47-2 5h21l1 2c-3.44 0.23-6.87 0.43-10.3 0.62-0.98 0.07-1.96 0.13-2.96 0.2-1.41 0.08-1.41 0.08-2.84 0.16-1.3 0.08-1.3 0.08-2.62 0.16-2.27-0.14-2.27-0.14-5.27-2.14-1.25-4.92-0.17-9.31 2.19-13.7 2.29-3.74 4.96-6.98 7.81-10.3l1-3 3-2z" fill="#FAFCFB"/>
<path transform="translate(1208,241)" d="m0 0v44c-0.99-0.33-1.98-0.66-3-1v-42c2-1 2-1 3-1z" fill="#CACECF"/>
<path transform="translate(180,221)" d="m0 0c0.99 0.33 1.98 0.66 3 1-0.16 1.07-0.33 2.15-0.5 3.26-0.68 5.54-0.61 11-0.56 16.6 0 1.13 0.01 2.27 0.01 3.43 0.02 4.81 0.04 9.62 0.07 14.4 0.14 26.1 0.14 26.1-1.02 37.3h-1v-76z" fill="#FCFDFD"/>
<path transform="translate(1038,241)" d="m0 0 4 1c-1.48 1.49-1.48 1.49-3 3-0.99-0.33-1.98-0.66-3-1l2-3zm-3 4 1 4c-0.57 0.25-1.13 0.51-1.71 0.77-0.74 0.34-1.47 0.69-2.23 1.04-0.73 0.34-1.46 0.68-2.21 1.02-2.18 1.11-2.18 1.11-2.85 4.17v3l3 2c1.02 0.98 2.02 1.98 3 3l-2 4c-10-11.3-10-11.3-10-16 1.2-0.41 2.39-0.82 3.62-1.25 3.91-1.45 7.01-3.31 10.4-5.75z" fill="#EEF0F1"/>
<path transform="translate(961,185)" d="m0 0 53 1c0.5 0.99 0.5 0.99 1 2-7.37 0.03-14.7 0.04-22.1 0.05-2.51 0.01-5.01 0.02-7.52 0.03-3.6 0.01-7.2 0.01-10.8 0.02-1.69 0.01-1.69 0.01-3.42 0.01h-3.15c-0.92 0.01-1.84 0.01-2.79 0.01-2.21-0.12-2.21-0.12-4.21-1.12v-2z" fill="#FEFEFE"/>
<path transform="translate(977,257)" d="m0 0h2v37l-3-2c-0.28-2.61-0.37-4.99-0.33-7.6 0-0.75 0.01-1.5 0.01-2.27 0-1.58 0.02-3.17 0.04-4.75 0.03-2.44 0.04-4.87 0.05-7.3 0-1.54 0.02-3.08 0.03-4.62 0-0.73 0.01-1.46 0.01-2.21 0.07-5.13 0.07-5.13 1.19-6.25z" fill="#CACECF"/>
<path transform="translate(509,218)" d="m0 0c0.99 0.33 1.98 0.66 3 1v44h-3v-45z" fill="#4B789B"/>
<path transform="translate(718,306)" d="m0 0 1 2-1 2h2v2c1.7-0.03 1.7-0.03 3.44-0.06 6.16 0.01 12.1 0.02 17.6 3.06-2.2 2.2-7.17 1.19-10.1 1.19-0.85 0.01-1.69 0.02-2.56 0.03-5.17 0.02-9.42-0.54-14.3-2.22 0.6-2.35 1.27-4.69 2-7l2-1z" fill="#FBFCFC"/>
<path transform="translate(184,188)" d="m0 0c2.63 0.14 5.25 0.29 7.88 0.44 1.11 0.06 1.11 0.06 2.26 0.12 5.63 0.33 5.63 0.33 7.86 1.44 1.26 5.69 0.95 11.2 0.56 16.9-0.08 1.31-0.08 1.31-0.16 2.65-0.12 2.14-0.26 4.27-0.4 6.41l-2 1c-0.03-0.71-0.05-1.42-0.08-2.16-0.11-3.21-0.23-6.43-0.36-9.65-0.04-1.12-0.08-2.24-0.12-3.4-0.04-1.07-0.08-2.14-0.12-3.25-0.04-0.99-0.08-1.98-0.11-3-0.12-2.66-0.12-2.66-1.21-5.54-0.99 0.33-1.98 0.66-3 1-2.06 0.07-4.13 0.08-6.19 0.06-1.63-0.01-1.63-0.01-3.29-0.02-0.83-0.02-1.66-0.03-2.52-0.04l1-3z" fill="#FAFBFB"/>
<path transform="translate(805,88)" d="m0 0h3c2 3 2 3 2 6h2v2c0.78 0.21 1.57 0.41 2.38 0.62 2.62 1.38 2.62 1.38 3.93 4.5 0.34 1.43 0.34 1.43 0.69 2.88h2l1 3h-2l-1 2c-1.46-1.75-2.92-3.5-4.38-5.25-0.81-0.97-1.62-1.95-2.46-2.95-1.75-2.27-2.91-4.26-4.16-6.8-2.03-1.27-2.03-1.27-4-2 0-3 0-3 1-4z" fill="#FCFCFC"/>
<path transform="translate(1187,250)" d="m0 0h2v34h-2c-0.84-3.67-1.13-7.06-1.13-10.8 0-1.09-0.01-2.18-0.01-3.31 0.01-1.13 0.01-2.27 0.02-3.43-0.01-1.14-0.01-2.28-0.02-3.45 0-1.09 0.01-2.18 0.01-3.31v-3.01c0.12-2.38 0.45-4.39 1.13-6.67z" fill="#CFD2D3"/>
<path transform="translate(831,128)" d="m0 0c2.23 8.47 1.95 16.3 1 25-0.99 0.33-1.98 0.66-3 1v-25l2-1z" fill="#FCFCFC"/>
<path transform="translate(660 325)" d="m0 0c1.09 0.02 2.18 0.05 3.3 0.07 1.1 0.02 2.2 0.04 3.32 0.05 0.85 0.03 1.69 0.05 2.56 0.08-0.99 1.48-0.99 1.48-2 3-1.95 0.29-1.95 0.29-4.13 0.18-1.27-0.06-2.55-0.12-3.87-0.18 0.19 1.11 0.37 2.22 0.56 3.37 0.44 3.63 0.44 3.63-0.56 5.63l-4-2c-0.2-6.06-0.2-6.06 0-8 2-2 2-2 4.82-2.2z" fill="#F1F4F3"/>
<path transform="translate(831,170)" d="m0 0h1l1 20h1v5c-3 0-3 0-5-1v-22h2v-2z" fill="#FEFEFE"/>
<path transform="translate(549,232)" d="m0 0c15.8 0.5 15.8 0.5 32 1l-1 2h-31v-3z" fill="#FDFDFD"/>
<path transform="translate(795,248)" d="m0 0c1.49 0.99 1.49 0.99 3 2 0.43 2.34 0.43 2.34 0.51 5.23 0.04 1.03 0.07 2.06 0.11 3.12 0.02 1.08 0.04 2.16 0.07 3.27 0.03 1.09 0.07 2.18 0.1 3.3 0.08 2.69 0.15 5.39 0.21 8.08l-2 1c-2.71-8.14-2.15-17.5-2-26z" fill="#FDFEFE"/>
<path transform="translate(767,249)" d="m0 0h3v22c-3-3-3-3-3.34-5.08 0.02-0.79 0.03-1.57 0.05-2.37 0.01-0.85 0.02-1.69 0.03-2.57 0.02-0.88 0.05-1.76 0.07-2.67 0.02-0.89 0.03-1.78 0.04-2.7 0.04-2.21 0.09-4.41 0.15-6.61z" fill="#FEFEFE"/>
<path transform="translate(1168,287)" d="m0 0c2.06 0.44 2.06 0.44 4 1-0.81 3.44-0.81 3.44-2 7-3 1-3 1-6 0-0.99 0.33-1.98 0.66-3 1-2.72 0.23-5.25 0.13-8 0l-2-2c3.04-1.52 6.28-1.37 9.62-1.56 0.71-0.05 1.42-0.09 2.15-0.13 1.74-0.11 3.49-0.21 5.23-0.31-0.19-0.64-0.37-1.28-0.56-1.94-0.15-0.68-0.29-1.36-0.44-2.06l1-1z" fill="#F8F9F9"/>
<path transform="translate(802,138)" d="m0 0c3 1 3 1 5 3 2.08-0.17 2.08-0.17 4-1l1-2c1.2 5.45 0.91 8.22-2 13h-2l-2-8h-2l-2-5z" fill="#FBFCFC"/>
<path transform="translate(807,271)" d="m0 0c2 2 2 2 2 5 1.98 0.66 3.96 1.32 6 2l1 5c-3 1-3 1-5.04 0-0.71-0.47-1.42-0.95-2.15-1.44-0.71-0.47-1.43-0.94-2.17-1.43-0.54-0.37-1.08-0.75-1.64-1.13l2-8z" fill="#F9FBFA"/>
<path transform="translate(1322,222)" d="m0 0h1c1 7.62 1 7.62 1 11 0.25 0.64 0.49 1.28 0.75 1.94 0.08 0.68 0.16 1.36 0.25 2.06-1.94 2.25-1.94 2.25-4 4-0.9-3.84-1.11-7.38-1.06-11.3 0.01-1.07 0.02-2.14 0.02-3.24 0.02-0.81 0.03-1.62 0.04-2.45h2v-2z" fill="#FAFAFA"/>
<path transform="translate(742 280)" d="m0 0c2.19 1.91 2.7 2.9 3 5.75-0.41-0.49-0.81-0.98-1.23-1.48-2.2-1.89-3.18-1.87-6.02-1.77-1.18 0.04-1.18 0.04-2.39 0.08-3.16 0.23-6.23 0.64-9.36 1.17 0.31-1.94 0.31-1.94 1-4 5.06-1.69 10-1.81 15 0.25z" fill="#F2F3F3"/>
<path transform="translate(478,232)" d="m0 0c3.88 1.88 3.88 1.88 5 3 0.1 2.64 0.14 5.24 0.12 7.88 0.01 0.73 0.01 1.46 0.02 2.22-0.01 3.22-0.11 5.82-1.14 8.9h-3c0.17-0.95 0.33-1.9 0.5-2.88 0.9-6.41 1.64-13.2-1.5-19.1z" fill="#E7EBEB"/>
<path transform="translate(801 79.1)" d="m0 0c1.59 2.17 2.39 4.38 3.38 6.88 0.65 0.32 1.32 0.65 2 1h-2v2c-4.72-1.49-4.72-1.49-6.13-4-0.29-0.66-0.58-1.32-0.87-2-1-0.66-1.99-1.32-3-2 1-2 1-2 2.87-2.82 2.13-0.18 2.13-0.18 3.75 0.94z" fill="#FAFCFB"/>
<path transform="translate(511,240)" d="m0 0h1v23h-3v-17h2v-6z" fill="#468184"/>
<path transform="translate(745,233)" d="m0 0h21l1 2c-10.4 0.5-10.4 0.5-21 1l-1-3z" fill="#CBCECF"/>
<path transform="translate(1321,290)" d="m0 0 1 2c-2.04 2.75-3.08 3.01-6.56 3.62-1.14 0.13-2.27 0.25-3.44 0.38-0.99 0.5-0.99 0.5-2 1-2.02-0.61-4.02-1.27-6-2l1-3c1.48 0.03 1.48 0.03 2.99 0.07 1.92 0.03 1.92 0.03 3.89 0.05 1.27 0.03 2.55 0.05 3.86 0.08 3.35 0.16 3.35 0.16 5.26-2.2z" fill="#FAFCFC"/>
<path transform="translate(184,258)" d="m0 0v15c-0.99-0.33-1.98-0.66-3-1v-13c2-1 2-1 3-1z" fill="#5D8FE6"/>
<path transform="translate(1351,233)" d="m0 0 4 1c-3.5 4.17-6.98 8.31-11 12h-2c0.47-4.27 2.99-6.14 6-9 1.03-1.31 2.04-2.64 3-4z" fill="#F0F3F3"/>
<path transform="translate(815,97)" d="m0 0c2.22 2.22 2.93 4.08 4 7h2l1 3h-2l-1 2c-1.18-1.26-2.34-2.54-3.5-3.81-0.65-0.71-1.3-1.42-1.97-2.15-1.53-2.04-1.53-2.04-1.53-5.04 0.99-0.33 1.98-0.66 3-1z" fill="#FAFBFB"/>
<path transform="translate(1199,226)" d="m0 0c2.31 0.5 2.31 0.5 5 2 2.21 3.99 3.3 8.51 4 13-0.99 0.5-0.99 0.5-2 1-0.65-1.6-1.29-3.21-1.94-4.81-0.54-1.34-0.54-1.34-1.09-2.71-0.71-1.81-1.36-3.64-1.97-5.48h-2v-3z" fill="#F2F5F4"/>
<path transform="translate(1187,250)" d="m0 0h2c0.22 6.1 0.01 11.2-2 17h-1c-0.03-2.08-0.05-4.17-0.06-6.25-0.01-1.16-0.03-2.32-0.04-3.52 0.08-2.64 0.31-4.73 1.1-7.23z" fill="#C0C4C6"/>
<path transform="translate(1365,219)" d="m0 0h2l-2 5h-2l-1 3c-1.94 2.19-1.94 2.19-4 4h-2l-1-3c0.55-0.48 1.11-0.96 1.68-1.46 0.72-0.63 1.45-1.26 2.2-1.92 0.71-0.62 1.43-1.25 2.17-1.89 1.36-1.2 2.67-2.45 3.95-3.73z" fill="#ECEFEF"/>
<path transform="translate(582,188)" d="m0 0h18c-1 2-1 2-2.61 2.62-3.23 0.51-6.37 0.47-9.64 0.44-1.26-0.01-2.53-0.02-3.83-0.02-0.96-0.02-1.93-0.03-2.92-0.04l1-3z" fill="#FBFCFC"/>
<path transform="translate(822,253)" d="m0 0c2 2 2 2 2.2 4.38-0.03 0.91-0.05 1.81-0.08 2.74-0.01 0.92-0.03 1.83-0.05 2.76-0.03 1.05-0.03 1.05-0.07 2.12h-3c-0.03-1.62-0.05-3.25-0.06-4.88-0.01-0.9-0.03-1.8-0.04-2.74 0.1-2.38 0.1-2.38 1.1-4.38z" fill="#CACECF"/>
<path transform="translate(1340,249)" d="m0 0c-1.15 3.45-2.32 4.38-5.06 6.69-0.74 0.62-1.47 1.24-2.23 1.88-0.56 0.47-1.13 0.95-1.71 1.43l-2-2c1.26-1.34 2.53-2.67 3.81-4 0.71-0.74 1.42-1.49 2.15-2.25 2.04-1.75 2.04-1.75 5.04-1.75z" fill="#F5F8F7"/>
<path transform="translate(765,275)" d="m0 0c3.47 1.98 3.47 1.98 7 4-2.32 1.55-4.51 2.8-7 4v-3l-2-1 2-4z" fill="#F9FAFA"/>
<path transform="translate(1046,285)" d="m0 0 3 2c0.19 2.44 0.19 2.44 0 5v3h-5v-2h3l-2-7 1-1z" fill="#F6F8F8"/>
<path transform="translate(1016,236)" d="m0 0 1 4h-12l2-2 2 1v-2c2.46-1.23 4.28-1.07 7-1z" fill="#FCFDFD"/>
<path transform="translate(1145,223)" d="m0 0 1 3h3l1 6-3 2c-1.8-3.83-2.2-6.78-2-11z" fill="#F2F5F8"/>
<path transform="translate(381,235)" d="m0 0c1.14 3.42 1.1 6.09 1.06 9.69-0.01 1.18-0.02 2.36-0.02 3.57-0.02 0.91-0.03 1.81-0.04 2.74l-2-1c-1.1-4.62-1.43-9.44 0-14l1-1z" fill="#FCFFFF"/>
<path transform="translate(789 95.2)" d="m0 0c2 0.81 2 0.81 3.25 2.88 0.25 0.63 0.5 1.27 0.75 1.93-3.13 1.05-3.99 0.94-7 0l-1-4c2-1 2-1 4-0.81z" fill="#F6F7F7"/>
<path transform="translate(765,311)" d="m0 0c1.04 0.48 1.04 0.48 2.11 0.96 3.15 1.13 5.86 1.44 9.2 1.66 1.61 0.12 1.61 0.12 3.24 0.23 0.81 0.05 1.62 0.1 2.45 0.15v1h-19l2-4z" fill="#FEFEFE"/>
<path transform="translate(1376,293)" d="m0 0 16 1v1l-14 1v-2l-2-1z" fill="#F6F9F8"/>
<path transform="translate(1136,199)" d="m0 0c0.99 0.33 1.98 0.66 3 1 1.25 2.94 1.25 2.94 2 6l-1 2c-0.99-0.33-1.98-0.66-3-1l-1-8z" fill="#FAFBFA"/>
<path transform="translate(686,157)" d="m0 0 2 2c-4.46 1.49-4.46 1.49-9 3l-2-4c3.24-1.08 5.6-1.22 9-1z" fill="#FDFDFD"/>
</svg>
