<?xml version="1.0" standalone="no"?>
<svg xmlns:xlink="http://www.w3.org/1999/xlink" id="wave" style="transform:rotate(180deg); transition: 0.3s" viewBox="0 0 1440 390" version="1.1" xmlns="http://www.w3.org/2000/svg"><defs><linearGradient id="sw-gradient-0" x1="0" x2="0" y1="1" y2="0"><stop stop-color="rgba(145, 86, 238, 1)" offset="0%"/><stop stop-color="rgba(161, 88, 235, 1)" offset="100%"/></linearGradient></defs><path style="transform:translate(0, 0px); opacity:1" fill="url(#sw-gradient-0)" d="M0,156L60,149.5C120,143,240,130,360,123.5C480,117,600,117,720,149.5C840,182,960,247,1080,253.5C1200,260,1320,208,1440,156C1560,104,1680,52,1800,71.5C1920,91,2040,182,2160,234C2280,286,2400,299,2520,253.5C2640,208,2760,104,2880,97.5C3000,91,3120,182,3240,182C3360,182,3480,91,3600,45.5C3720,0,3840,0,3960,6.5C4080,13,4200,26,4320,58.5C4440,91,4560,143,4680,136.5C4800,130,4920,65,5040,65C5160,65,5280,130,5400,156C5520,182,5640,169,5760,188.5C5880,208,6000,260,6120,273C6240,286,6360,260,6480,214.5C6600,169,6720,104,6840,104C6960,104,7080,169,7200,162.5C7320,156,7440,78,7560,39C7680,0,7800,0,7920,6.5C8040,13,8160,26,8280,65C8400,104,8520,169,8580,201.5L8640,234L8640,390L8580,390C8520,390,8400,390,8280,390C8160,390,8040,390,7920,390C7800,390,7680,390,7560,390C7440,390,7320,390,7200,390C7080,390,6960,390,6840,390C6720,390,6600,390,6480,390C6360,390,6240,390,6120,390C6000,390,5880,390,5760,390C5640,390,5520,390,5400,390C5280,390,5160,390,5040,390C4920,390,4800,390,4680,390C4560,390,4440,390,4320,390C4200,390,4080,390,3960,390C3840,390,3720,390,3600,390C3480,390,3360,390,3240,390C3120,390,3000,390,2880,390C2760,390,2640,390,2520,390C2400,390,2280,390,2160,390C2040,390,1920,390,1800,390C1680,390,1560,390,1440,390C1320,390,1200,390,1080,390C960,390,840,390,720,390C600,390,480,390,360,390C240,390,120,390,60,390L0,390Z"/><defs><linearGradient id="sw-gradient-1" x1="0" x2="0" y1="1" y2="0"><stop stop-color="rgba(145, 86, 238, 1)" offset="0%"/><stop stop-color="rgba(189.514, 88, 235, 1)" offset="100%"/></linearGradient></defs><path style="transform:translate(0, 50px); opacity:0.9" fill="url(#sw-gradient-1)" d="M0,0L60,13C120,26,240,52,360,104C480,156,600,234,720,234C840,234,960,156,1080,136.5C1200,117,1320,156,1440,162.5C1560,169,1680,143,1800,136.5C1920,130,2040,143,2160,182C2280,221,2400,286,2520,299C2640,312,2760,273,2880,247C3000,221,3120,208,3240,169C3360,130,3480,65,3600,58.5C3720,52,3840,104,3960,143C4080,182,4200,208,4320,182C4440,156,4560,78,4680,58.5C4800,39,4920,78,5040,84.5C5160,91,5280,65,5400,58.5C5520,52,5640,65,5760,78C5880,91,6000,104,6120,149.5C6240,195,6360,273,6480,266.5C6600,260,6720,169,6840,149.5C6960,130,7080,182,7200,188.5C7320,195,7440,156,7560,143C7680,130,7800,143,7920,130C8040,117,8160,78,8280,52C8400,26,8520,13,8580,6.5L8640,0L8640,390L8580,390C8520,390,8400,390,8280,390C8160,390,8040,390,7920,390C7800,390,7680,390,7560,390C7440,390,7320,390,7200,390C7080,390,6960,390,6840,390C6720,390,6600,390,6480,390C6360,390,6240,390,6120,390C6000,390,5880,390,5760,390C5640,390,5520,390,5400,390C5280,390,5160,390,5040,390C4920,390,4800,390,4680,390C4560,390,4440,390,4320,390C4200,390,4080,390,3960,390C3840,390,3720,390,3600,390C3480,390,3360,390,3240,390C3120,390,3000,390,2880,390C2760,390,2640,390,2520,390C2400,390,2280,390,2160,390C2040,390,1920,390,1800,390C1680,390,1560,390,1440,390C1320,390,1200,390,1080,390C960,390,840,390,720,390C600,390,480,390,360,390C240,390,120,390,60,390L0,390Z"/></svg>