<?xml version="1.0" standalone="no"?>
<svg xmlns:xlink="http://www.w3.org/1999/xlink" id="wave" style="transform:rotate(180deg); transition: 0.3s" viewBox="0 0 1440 390" version="1.1" xmlns="http://www.w3.org/2000/svg"><defs><linearGradient id="sw-gradient-0" x1="0" x2="0" y1="1" y2="0"><stop stop-color="rgba(145, 86, 238, 1)" offset="0%"/><stop stop-color="rgba(161, 88, 235, 1)" offset="100%"/></linearGradient></defs><path style="transform:translate(0, 0px); opacity:1" fill="url(#sw-gradient-0)" d="M0,156L34.3,149.5C68.6,143,137,130,206,123.5C274.3,117,343,117,411,149.5C480,182,549,247,617,253.5C685.7,260,754,208,823,156C891.4,104,960,52,1029,71.5C1097.1,91,1166,182,1234,234C1302.9,286,1371,299,1440,253.5C1508.6,208,1577,104,1646,97.5C1714.3,91,1783,182,1851,182C1920,182,1989,91,2057,45.5C2125.7,0,2194,0,2263,6.5C2331.4,13,2400,26,2469,58.5C2537.1,91,2606,143,2674,136.5C2742.9,130,2811,65,2880,65C2948.6,65,3017,130,3086,156C3154.3,182,3223,169,3291,188.5C3360,208,3429,260,3497,273C3565.7,286,3634,260,3703,214.5C3771.4,169,3840,104,3909,104C3977.1,104,4046,169,4114,162.5C4182.9,156,4251,78,4320,39C4388.6,0,4457,0,4526,6.5C4594.3,13,4663,26,4731,65C4800,104,4869,169,4903,201.5L4937.1,234L4937.1,390L4902.9,390C4868.6,390,4800,390,4731,390C4662.9,390,4594,390,4526,390C4457.1,390,4389,390,4320,390C4251.4,390,4183,390,4114,390C4045.7,390,3977,390,3909,390C3840,390,3771,390,3703,390C3634.3,390,3566,390,3497,390C3428.6,390,3360,390,3291,390C3222.9,390,3154,390,3086,390C3017.1,390,2949,390,2880,390C2811.4,390,2743,390,2674,390C2605.7,390,2537,390,2469,390C2400,390,2331,390,2263,390C2194.3,390,2126,390,2057,390C1988.6,390,1920,390,1851,390C1782.9,390,1714,390,1646,390C1577.1,390,1509,390,1440,390C1371.4,390,1303,390,1234,390C1165.7,390,1097,390,1029,390C960,390,891,390,823,390C754.3,390,686,390,617,390C548.6,390,480,390,411,390C342.9,390,274,390,206,390C137.1,390,69,390,34,390L0,390Z"/><defs><linearGradient id="sw-gradient-1" x1="0" x2="0" y1="1" y2="0"><stop stop-color="rgba(145, 86, 238, 1)" offset="0%"/><stop stop-color="rgba(189.514, 88, 235, 1)" offset="100%"/></linearGradient></defs><path style="transform:translate(0, 50px); opacity:0.9" fill="url(#sw-gradient-1)" d="M0,0L34.3,13C68.6,26,137,52,206,104C274.3,156,343,234,411,234C480,234,549,156,617,136.5C685.7,117,754,156,823,162.5C891.4,169,960,143,1029,136.5C1097.1,130,1166,143,1234,182C1302.9,221,1371,286,1440,299C1508.6,312,1577,273,1646,247C1714.3,221,1783,208,1851,169C1920,130,1989,65,2057,58.5C2125.7,52,2194,104,2263,143C2331.4,182,2400,208,2469,182C2537.1,156,2606,78,2674,58.5C2742.9,39,2811,78,2880,84.5C2948.6,91,3017,65,3086,58.5C3154.3,52,3223,65,3291,78C3360,91,3429,104,3497,149.5C3565.7,195,3634,273,3703,266.5C3771.4,260,3840,169,3909,149.5C3977.1,130,4046,182,4114,188.5C4182.9,195,4251,156,4320,143C4388.6,130,4457,143,4526,130C4594.3,117,4663,78,4731,52C4800,26,4869,13,4903,6.5L4937.1,0L4937.1,390L4902.9,390C4868.6,390,4800,390,4731,390C4662.9,390,4594,390,4526,390C4457.1,390,4389,390,4320,390C4251.4,390,4183,390,4114,390C4045.7,390,3977,390,3909,390C3840,390,3771,390,3703,390C3634.3,390,3566,390,3497,390C3428.6,390,3360,390,3291,390C3222.9,390,3154,390,3086,390C3017.1,390,2949,390,2880,390C2811.4,390,2743,390,2674,390C2605.7,390,2537,390,2469,390C2400,390,2331,390,2263,390C2194.3,390,2126,390,2057,390C1988.6,390,1920,390,1851,390C1782.9,390,1714,390,1646,390C1577.1,390,1509,390,1440,390C1371.4,390,1303,390,1234,390C1165.7,390,1097,390,1029,390C960,390,891,390,823,390C754.3,390,686,390,617,390C548.6,390,480,390,411,390C342.9,390,274,390,206,390C137.1,390,69,390,34,390L0,390Z"/></svg>