<?xml version="1.0" standalone="no"?>
<svg xmlns:xlink="http://www.w3.org/1999/xlink" id="wave" style="transform:rotate(180deg); transition: 0.3s" viewBox="0 0 1440 490" version="1.1" xmlns="http://www.w3.org/2000/svg"><defs><linearGradient id="sw-gradient-0" x1="0" x2="0" y1="1" y2="0"><stop stop-color="rgba(110, 68, 184, 1)" offset="0%"/><stop stop-color="rgba(178, 105, 242, 1)" offset="100%"/></linearGradient></defs><path style="transform:translate(0, 0px); opacity:1" fill="url(#sw-gradient-0)" d="M0,441L60,424.7C120,408,240,376,360,359.3C480,343,600,343,720,334.8C840,327,960,310,1080,261.3C1200,212,1320,131,1440,98C1560,65,1680,82,1800,130.7C1920,180,2040,261,2160,294C2280,327,2400,310,2520,269.5C2640,229,2760,163,2880,114.3C3000,65,3120,33,3240,40.8C3360,49,3480,98,3600,114.3C3720,131,3840,114,3960,122.5C4080,131,4200,163,4320,155.2C4440,147,4560,98,4680,89.8C4800,82,4920,114,5040,122.5C5160,131,5280,114,5400,106.2C5520,98,5640,98,5760,81.7C5880,65,6000,33,6120,32.7C6240,33,6360,65,6480,130.7C6600,196,6720,294,6840,294C6960,294,7080,196,7200,130.7C7320,65,7440,33,7560,73.5C7680,114,7800,229,7920,285.8C8040,343,8160,343,8280,302.2C8400,261,8520,180,8580,138.8L8640,98L8640,490L8580,490C8520,490,8400,490,8280,490C8160,490,8040,490,7920,490C7800,490,7680,490,7560,490C7440,490,7320,490,7200,490C7080,490,6960,490,6840,490C6720,490,6600,490,6480,490C6360,490,6240,490,6120,490C6000,490,5880,490,5760,490C5640,490,5520,490,5400,490C5280,490,5160,490,5040,490C4920,490,4800,490,4680,490C4560,490,4440,490,4320,490C4200,490,4080,490,3960,490C3840,490,3720,490,3600,490C3480,490,3360,490,3240,490C3120,490,3000,490,2880,490C2760,490,2640,490,2520,490C2400,490,2280,490,2160,490C2040,490,1920,490,1800,490C1680,490,1560,490,1440,490C1320,490,1200,490,1080,490C960,490,840,490,720,490C600,490,480,490,360,490C240,490,120,490,60,490L0,490Z"/><defs><linearGradient id="sw-gradient-1" x1="0" x2="0" y1="1" y2="0"><stop stop-color="rgba(110, 68, 184, 1)" offset="0%"/><stop stop-color="rgba(178, 105, 242, 1)" offset="100%"/></linearGradient></defs><path style="transform:translate(0, 50px); opacity:0.9" fill="url(#sw-gradient-1)" d="M0,196L60,187.8C120,180,240,163,360,147C480,131,600,114,720,122.5C840,131,960,163,1080,155.2C1200,147,1320,98,1440,73.5C1560,49,1680,49,1800,49C1920,49,2040,49,2160,65.3C2280,82,2400,114,2520,179.7C2640,245,2760,343,2880,392C3000,441,3120,441,3240,424.7C3360,408,3480,376,3600,318.5C3720,261,3840,180,3960,155.2C4080,131,4200,163,4320,220.5C4440,278,4560,359,4680,400.2C4800,441,4920,441,5040,408.3C5160,376,5280,310,5400,269.5C5520,229,5640,212,5760,245C5880,278,6000,359,6120,383.8C6240,408,6360,376,6480,343C6600,310,6720,278,6840,228.7C6960,180,7080,114,7200,122.5C7320,131,7440,212,7560,204.2C7680,196,7800,98,7920,73.5C8040,49,8160,98,8280,122.5C8400,147,8520,147,8580,147L8640,147L8640,490L8580,490C8520,490,8400,490,8280,490C8160,490,8040,490,7920,490C7800,490,7680,490,7560,490C7440,490,7320,490,7200,490C7080,490,6960,490,6840,490C6720,490,6600,490,6480,490C6360,490,6240,490,6120,490C6000,490,5880,490,5760,490C5640,490,5520,490,5400,490C5280,490,5160,490,5040,490C4920,490,4800,490,4680,490C4560,490,4440,490,4320,490C4200,490,4080,490,3960,490C3840,490,3720,490,3600,490C3480,490,3360,490,3240,490C3120,490,3000,490,2880,490C2760,490,2640,490,2520,490C2400,490,2280,490,2160,490C2040,490,1920,490,1800,490C1680,490,1560,490,1440,490C1320,490,1200,490,1080,490C960,490,840,490,720,490C600,490,480,490,360,490C240,490,120,490,60,490L0,490Z"/></svg>