<?xml version="1.0" standalone="no"?>
<svg xmlns:xlink="http://www.w3.org/1999/xlink" id="wave" style="transform:rotate(0deg); transition: 0.3s" viewBox="0 0 1440 490" version="1.1" xmlns="http://www.w3.org/2000/svg"><defs><linearGradient id="sw-gradient-0" x1="0" x2="0" y1="1" y2="0"><stop stop-color="rgba(110, 68, 184, 1)" offset="0%"/><stop stop-color="rgba(178, 105, 242, 1)" offset="100%"/></linearGradient></defs><path style="transform:translate(0, 0px); opacity:1" fill="url(#sw-gradient-0)" d="M0,245L40,204.2C80,163,160,82,240,81.7C320,82,400,163,480,204.2C560,245,640,245,720,277.7C800,310,880,376,960,351.2C1040,327,1120,212,1200,204.2C1280,196,1360,294,1440,343C1520,392,1600,392,1680,359.3C1760,327,1840,261,1920,261.3C2000,261,2080,327,2160,351.2C2240,376,2320,359,2400,351.2C2480,343,2560,343,2640,359.3C2720,376,2800,408,2880,375.7C2960,343,3040,245,3120,196C3200,147,3280,147,3360,187.8C3440,229,3520,310,3600,343C3680,376,3760,359,3840,310.3C3920,261,4000,180,4080,196C4160,212,4240,327,4320,326.7C4400,327,4480,212,4560,155.2C4640,98,4720,98,4800,81.7C4880,65,4960,33,5040,65.3C5120,98,5200,196,5280,196C5360,196,5440,98,5520,122.5C5600,147,5680,294,5720,367.5L5760,441L5760,490L5720,490C5680,490,5600,490,5520,490C5440,490,5360,490,5280,490C5200,490,5120,490,5040,490C4960,490,4880,490,4800,490C4720,490,4640,490,4560,490C4480,490,4400,490,4320,490C4240,490,4160,490,4080,490C4000,490,3920,490,3840,490C3760,490,3680,490,3600,490C3520,490,3440,490,3360,490C3280,490,3200,490,3120,490C3040,490,2960,490,2880,490C2800,490,2720,490,2640,490C2560,490,2480,490,2400,490C2320,490,2240,490,2160,490C2080,490,2000,490,1920,490C1840,490,1760,490,1680,490C1600,490,1520,490,1440,490C1360,490,1280,490,1200,490C1120,490,1040,490,960,490C880,490,800,490,720,490C640,490,560,490,480,490C400,490,320,490,240,490C160,490,80,490,40,490L0,490Z"/><defs><linearGradient id="sw-gradient-1" x1="0" x2="0" y1="1" y2="0"><stop stop-color="rgba(110, 68, 184, 1)" offset="0%"/><stop stop-color="rgba(178, 105, 242, 1)" offset="100%"/></linearGradient></defs><path style="transform:translate(0, 50px); opacity:0.9" fill="url(#sw-gradient-1)" d="M0,98L40,138.8C80,180,160,261,240,277.7C320,294,400,245,480,212.3C560,180,640,163,720,171.5C800,180,880,212,960,236.8C1040,261,1120,278,1200,245C1280,212,1360,131,1440,147C1520,163,1600,278,1680,343C1760,408,1840,425,1920,359.3C2000,294,2080,147,2160,89.8C2240,33,2320,65,2400,106.2C2480,147,2560,196,2640,245C2720,294,2800,343,2880,326.7C2960,310,3040,229,3120,212.3C3200,196,3280,245,3360,220.5C3440,196,3520,98,3600,81.7C3680,65,3760,131,3840,179.7C3920,229,4000,261,4080,245C4160,229,4240,163,4320,187.8C4400,212,4480,327,4560,334.8C4640,343,4720,245,4800,220.5C4880,196,4960,245,5040,277.7C5120,310,5200,327,5280,334.8C5360,343,5440,343,5520,294C5600,245,5680,147,5720,98L5760,49L5760,490L5720,490C5680,490,5600,490,5520,490C5440,490,5360,490,5280,490C5200,490,5120,490,5040,490C4960,490,4880,490,4800,490C4720,490,4640,490,4560,490C4480,490,4400,490,4320,490C4240,490,4160,490,4080,490C4000,490,3920,490,3840,490C3760,490,3680,490,3600,490C3520,490,3440,490,3360,490C3280,490,3200,490,3120,490C3040,490,2960,490,2880,490C2800,490,2720,490,2640,490C2560,490,2480,490,2400,490C2320,490,2240,490,2160,490C2080,490,2000,490,1920,490C1840,490,1760,490,1680,490C1600,490,1520,490,1440,490C1360,490,1280,490,1200,490C1120,490,1040,490,960,490C880,490,800,490,720,490C640,490,560,490,480,490C400,490,320,490,240,490C160,490,80,490,40,490L0,490Z"/></svg>