<?xml version="1.0" standalone="no"?>
<svg xmlns:xlink="http://www.w3.org/1999/xlink" id="wave" style="transform:rotate(180deg); transition: 0.3s" viewBox="0 0 1440 490" version="1.1" xmlns="http://www.w3.org/2000/svg"><defs><linearGradient id="sw-gradient-0" x1="0" x2="0" y1="1" y2="0"><stop stop-color="rgba(110, 68, 184, 1)" offset="0%"/><stop stop-color="rgba(178, 105, 242, 1)" offset="100%"/></linearGradient></defs><path style="transform:translate(0, 0px); opacity:1" fill="url(#sw-gradient-0)" d="M0,343L48,351.2C96,359,192,376,288,383.8C384,392,480,392,576,326.7C672,261,768,131,864,89.8C960,49,1056,98,1152,114.3C1248,131,1344,114,1440,106.2C1536,98,1632,98,1728,147C1824,196,1920,294,2016,302.2C2112,310,2208,229,2304,179.7C2400,131,2496,114,2592,130.7C2688,147,2784,196,2880,196C2976,196,3072,147,3168,171.5C3264,196,3360,294,3456,318.5C3552,343,3648,294,3744,277.7C3840,261,3936,278,4032,277.7C4128,278,4224,261,4320,220.5C4416,180,4512,114,4608,122.5C4704,131,4800,212,4896,245C4992,278,5088,261,5184,220.5C5280,180,5376,114,5472,81.7C5568,49,5664,49,5760,81.7C5856,114,5952,180,6048,245C6144,310,6240,376,6336,408.3C6432,441,6528,441,6624,375.7C6720,310,6816,180,6864,114.3L6912,49L6912,490L6864,490C6816,490,6720,490,6624,490C6528,490,6432,490,6336,490C6240,490,6144,490,6048,490C5952,490,5856,490,5760,490C5664,490,5568,490,5472,490C5376,490,5280,490,5184,490C5088,490,4992,490,4896,490C4800,490,4704,490,4608,490C4512,490,4416,490,4320,490C4224,490,4128,490,4032,490C3936,490,3840,490,3744,490C3648,490,3552,490,3456,490C3360,490,3264,490,3168,490C3072,490,2976,490,2880,490C2784,490,2688,490,2592,490C2496,490,2400,490,2304,490C2208,490,2112,490,2016,490C1920,490,1824,490,1728,490C1632,490,1536,490,1440,490C1344,490,1248,490,1152,490C1056,490,960,490,864,490C768,490,672,490,576,490C480,490,384,490,288,490C192,490,96,490,48,490L0,490Z"/><defs><linearGradient id="sw-gradient-1" x1="0" x2="0" y1="1" y2="0"><stop stop-color="rgba(110, 68, 184, 1)" offset="0%"/><stop stop-color="rgba(178, 105, 242, 1)" offset="100%"/></linearGradient></defs><path style="transform:translate(0, 50px); opacity:0.9" fill="url(#sw-gradient-1)" d="M0,0L48,57.2C96,114,192,229,288,253.2C384,278,480,212,576,171.5C672,131,768,114,864,138.8C960,163,1056,229,1152,236.8C1248,245,1344,196,1440,163.3C1536,131,1632,114,1728,122.5C1824,131,1920,163,2016,196C2112,229,2208,261,2304,302.2C2400,343,2496,392,2592,375.7C2688,359,2784,278,2880,245C2976,212,3072,229,3168,204.2C3264,180,3360,114,3456,73.5C3552,33,3648,16,3744,32.7C3840,49,3936,98,4032,106.2C4128,114,4224,82,4320,81.7C4416,82,4512,114,4608,138.8C4704,163,4800,180,4896,171.5C4992,163,5088,131,5184,114.3C5280,98,5376,98,5472,89.8C5568,82,5664,65,5760,49C5856,33,5952,16,6048,8.2C6144,0,6240,0,6336,32.7C6432,65,6528,131,6624,130.7C6720,131,6816,65,6864,32.7L6912,0L6912,490L6864,490C6816,490,6720,490,6624,490C6528,490,6432,490,6336,490C6240,490,6144,490,6048,490C5952,490,5856,490,5760,490C5664,490,5568,490,5472,490C5376,490,5280,490,5184,490C5088,490,4992,490,4896,490C4800,490,4704,490,4608,490C4512,490,4416,490,4320,490C4224,490,4128,490,4032,490C3936,490,3840,490,3744,490C3648,490,3552,490,3456,490C3360,490,3264,490,3168,490C3072,490,2976,490,2880,490C2784,490,2688,490,2592,490C2496,490,2400,490,2304,490C2208,490,2112,490,2016,490C1920,490,1824,490,1728,490C1632,490,1536,490,1440,490C1344,490,1248,490,1152,490C1056,490,960,490,864,490C768,490,672,490,576,490C480,490,384,490,288,490C192,490,96,490,48,490L0,490Z"/></svg>